<?xml version="1.0" encoding="utf-8" standalone="no"?>
<!DOCTYPE svg PUBLIC "-//W3C//DTD SVG 1.1//EN"
  "http://www.w3.org/Graphics/SVG/1.1/DTD/svg11.dtd">
<svg height="576pt" version="1.1" viewBox="0 0 864 576" width="864pt" xmlns="http://www.w3.org/2000/svg" xmlns:xlink="http://www.w3.org/1999/xlink">
 <metadata>
  <rdf:RDF xmlns:cc="http://creativecommons.org/ns#" xmlns:dc="http://purl.org/dc/elements/1.1/" xmlns:rdf="http://www.w3.org/1999/02/22-rdf-syntax-ns#">
   <cc:Work>
    <dc:type rdf:resource="http://purl.org/dc/dcmitype/StillImage"/>
    <dc:date>2021-07-22T20:40:27.042143</dc:date>
    <dc:format>image/svg+xml</dc:format>
    <dc:creator>
     <cc:Agent>
      <dc:title>Matplotlib v3.4.2, https://matplotlib.org/</dc:title>
     </cc:Agent>
    </dc:creator>
   </cc:Work>
  </rdf:RDF>
 </metadata>
 <defs>
  <style type="text/css">*{stroke-linecap:butt;stroke-linejoin:round;}</style>
 </defs>
 <g id="figure_1">
  <g id="patch_1">
   <path d="M 0 576 
L 864 576 
L 864 0 
L 0 0 
z
" style="fill:#ffffff;"/>
  </g>
  <g id="axes_1">
   <g id="patch_2">
    <path d="M 108 512.64 
L 777.6 512.64 
L 777.6 69.12 
L 108 69.12 
z
" style="fill:#ffffff;"/>
   </g>
   <g id="patch_3">
    <path clip-path="url(#p58da293577)" d="M 173.633644 286.606119 
Q 235.276546 251.608858 295.947182 217.163594 
" style="fill:none;stroke:#808080;stroke-dasharray:3.7,1.6;stroke-dashoffset:0;stroke-linecap:round;"/>
    <path clip-path="url(#p58da293577)" d="M 291.481258 217.399233 
L 295.947182 217.163594 
L 293.456139 220.877716 
L 291.481258 217.399233 
z
" style="fill:#808080;stroke:#808080;stroke-dasharray:3.7,1.6;stroke-dashoffset:0;stroke-linecap:round;"/>
   </g>
   <g id="patch_4">
    <path clip-path="url(#p58da293577)" d="M 174.613153 292.489996 
Q 235.279392 303.970919 294.847097 315.243947 
" style="fill:none;stroke:#808080;stroke-dasharray:3.7,1.6;stroke-dashoffset:0;stroke-linecap:round;"/>
    <path clip-path="url(#p58da293577)" d="M 291.288751 312.53504 
L 294.847097 315.243947 
L 290.544964 316.46528 
L 291.288751 312.53504 
z
" style="fill:#808080;stroke:#808080;stroke-dasharray:3.7,1.6;stroke-dashoffset:0;stroke-linecap:round;"/>
   </g>
   <g id="patch_5">
    <path clip-path="url(#p58da293577)" d="M 173.327548 286.096553 
Q 304.455649 199.241811 434.651643 113.004464 
" style="fill:none;stroke:#808080;stroke-dasharray:3.7,1.6;stroke-dashoffset:0;stroke-linecap:round;"/>
    <path clip-path="url(#p58da293577)" d="M 430.212407 113.545922 
L 434.651643 113.004464 
L 432.421268 116.880728 
L 430.212407 113.545922 
z
" style="fill:#808080;stroke:#808080;stroke-dasharray:3.7,1.6;stroke-dashoffset:0;stroke-linecap:round;"/>
   </g>
   <g id="patch_6">
    <path clip-path="url(#p58da293577)" d="M 174.435828 288.515343 
Q 304.451341 251.607713 433.391315 215.005398 
" style="fill:none;stroke:#808080;stroke-dasharray:3.7,1.6;stroke-dashoffset:0;stroke-linecap:round;"/>
    <path clip-path="url(#p58da293577)" d="M 428.997188 214.173741 
L 433.391315 215.005398 
L 430.089514 218.021705 
L 428.997188 214.173741 
z
" style="fill:#808080;stroke:#808080;stroke-dasharray:3.7,1.6;stroke-dashoffset:0;stroke-linecap:round;"/>
   </g>
   <g id="patch_7">
    <path clip-path="url(#p58da293577)" d="M 174.731369 291.696184 
Q 304.456445 303.971245 433.068459 316.140984 
" style="fill:none;stroke:#808080;stroke-dasharray:3.7,1.6;stroke-dashoffset:0;stroke-linecap:round;"/>
    <path clip-path="url(#p58da293577)" d="M 429.274653 313.773067 
L 433.068459 316.140984 
L 428.897842 317.755279 
L 429.274653 313.773067 
z
" style="fill:#808080;stroke:#808080;stroke-dasharray:3.7,1.6;stroke-dashoffset:0;stroke-linecap:round;"/>
   </g>
   <g id="patch_8">
    <path clip-path="url(#p58da293577)" d="M 173.93763 294.585389 
Q 304.452965 356.33458 433.95767 417.605623 
" style="fill:none;stroke:#808080;stroke-dasharray:3.7,1.6;stroke-dashoffset:0;stroke-linecap:round;"/>
    <path clip-path="url(#p58da293577)" d="M 431.197264 414.087078 
L 433.95767 417.605623 
L 429.48659 417.70282 
L 431.197264 414.087078 
z
" style="fill:#808080;stroke:#808080;stroke-dasharray:3.7,1.6;stroke-dashoffset:0;stroke-linecap:round;"/>
   </g>
   <g id="patch_9">
    <path clip-path="url(#p58da293577)" d="M 174.36722 288.274243 
Q 373.627978 225.424971 571.822483 162.912009 
" style="fill:none;stroke:#808080;stroke-dasharray:3.7,1.6;stroke-dashoffset:0;stroke-linecap:round;"/>
    <path clip-path="url(#p58da293577)" d="M 567.406131 162.207854 
L 571.822483 162.912009 
L 568.609347 166.022598 
L 567.406131 162.207854 
z
" style="fill:#808080;stroke:#808080;stroke-dasharray:3.7,1.6;stroke-dashoffset:0;stroke-linecap:round;"/>
   </g>
   <g id="patch_10">
    <path clip-path="url(#p58da293577)" d="M 174.747202 290.334878 
Q 373.626489 277.789088 571.38996 265.313686 
" style="fill:none;stroke:#808080;stroke-dasharray:3.7,1.6;stroke-dashoffset:0;stroke-linecap:round;"/>
    <path clip-path="url(#p58da293577)" d="M 567.271981 263.569483 
L 571.38996 265.313686 
L 567.52381 267.561548 
L 567.271981 263.569483 
z
" style="fill:#808080;stroke:#808080;stroke-dasharray:3.7,1.6;stroke-dashoffset:0;stroke-linecap:round;"/>
   </g>
   <g id="patch_11">
    <path clip-path="url(#p58da293577)" d="M 174.614208 292.490196 
Q 373.626814 330.152797 571.540884 367.607503 
" style="fill:none;stroke:#808080;stroke-dasharray:3.7,1.6;stroke-dashoffset:0;stroke-linecap:round;"/>
    <path clip-path="url(#p58da293577)" d="M 567.982538 364.898596 
L 571.540884 367.607503 
L 567.238751 368.828835 
L 567.982538 364.898596 
z
" style="fill:#808080;stroke:#808080;stroke-dasharray:3.7,1.6;stroke-dashoffset:0;stroke-linecap:round;"/>
   </g>
   <g id="patch_12">
    <path clip-path="url(#p58da293577)" d="M 304.452893 220.992571 
Q 304.452893 238.514562 304.452893 254.91852 
" style="fill:none;stroke:#808080;stroke-dasharray:3.7,1.6;stroke-dashoffset:0;stroke-linecap:round;"/>
    <path clip-path="url(#p58da293577)" d="M 306.452893 250.91852 
L 304.452893 254.91852 
L 302.452893 250.91852 
L 306.452893 250.91852 
z
" style="fill:#808080;stroke:#808080;stroke-dasharray:3.7,1.6;stroke-dashoffset:0;stroke-linecap:round;"/>
   </g>
   <g id="patch_13">
    <path clip-path="url(#p58da293577)" d="M 313.094309 265.243303 
Q 511.973597 277.789094 709.737068 290.264495 
" style="fill:none;stroke:#808080;stroke-dasharray:3.7,1.6;stroke-dashoffset:0;stroke-linecap:round;"/>
    <path clip-path="url(#p58da293577)" d="M 705.870918 288.016634 
L 709.737068 290.264495 
L 705.619088 292.008699 
L 705.870918 288.016634 
z
" style="fill:#808080;stroke:#808080;stroke-dasharray:3.7,1.6;stroke-dashoffset:0;stroke-linecap:round;"/>
   </g>
   <g id="patch_14">
    <path clip-path="url(#p58da293577)" d="M 310.175839 258.199869 
Q 373.625418 186.153895 436.336071 114.94696 
" style="fill:none;stroke:#808080;stroke-dasharray:3.7,1.6;stroke-dashoffset:0;stroke-linecap:round;"/>
    <path clip-path="url(#p58da293577)" d="M 432.191487 116.626966 
L 436.336071 114.94696 
L 435.193325 119.270631 
L 432.191487 116.626966 
z
" style="fill:#808080;stroke:#808080;stroke-dasharray:3.7,1.6;stroke-dashoffset:0;stroke-linecap:round;"/>
   </g>
   <g id="patch_15">
    <path clip-path="url(#p58da293577)" d="M 312.554946 261.631598 
Q 373.629176 238.51533 433.657765 215.794832 
" style="fill:none;stroke:#808080;stroke-dasharray:3.7,1.6;stroke-dashoffset:0;stroke-linecap:round;"/>
    <path clip-path="url(#p58da293577)" d="M 429.208789 215.340281 
L 433.657765 215.794832 
L 430.624738 219.081282 
L 429.208789 215.340281 
z
" style="fill:#808080;stroke:#808080;stroke-dasharray:3.7,1.6;stroke-dashoffset:0;stroke-linecap:round;"/>
   </g>
   <g id="patch_16">
    <path clip-path="url(#p58da293577)" d="M 312.554946 267.764766 
Q 373.629176 290.881033 433.657765 313.601531 
" style="fill:none;stroke:#808080;stroke-dasharray:3.7,1.6;stroke-dashoffset:0;stroke-linecap:round;"/>
    <path clip-path="url(#p58da293577)" d="M 430.624738 310.315082 
L 433.657765 313.601531 
L 429.208789 314.056083 
L 430.624738 310.315082 
z
" style="fill:#808080;stroke:#808080;stroke-dasharray:3.7,1.6;stroke-dashoffset:0;stroke-linecap:round;"/>
   </g>
   <g id="patch_17">
    <path clip-path="url(#p58da293577)" d="M 310.175839 271.196495 
Q 373.625418 343.242469 436.336071 414.449404 
" style="fill:none;stroke:#808080;stroke-dasharray:3.7,1.6;stroke-dashoffset:0;stroke-linecap:round;"/>
    <path clip-path="url(#p58da293577)" d="M 435.193325 410.125732 
L 436.336071 414.449404 
L 432.191487 412.769397 
L 435.193325 410.125732 
z
" style="fill:#808080;stroke:#808080;stroke-dasharray:3.7,1.6;stroke-dashoffset:0;stroke-linecap:round;"/>
   </g>
   <g id="patch_18">
    <path clip-path="url(#p58da293577)" d="M 304.452893 325.719844 
Q 304.452893 343.241835 304.452893 359.645792 
" style="fill:none;stroke:#808080;stroke-dasharray:3.7,1.6;stroke-dashoffset:0;stroke-linecap:round;"/>
    <path clip-path="url(#p58da293577)" d="M 306.452893 355.645792 
L 304.452893 359.645792 
L 302.452893 355.645792 
L 306.452893 355.645792 
z
" style="fill:#808080;stroke:#808080;stroke-dasharray:3.7,1.6;stroke-dashoffset:0;stroke-linecap:round;"/>
   </g>
   <g id="patch_19">
    <path clip-path="url(#p58da293577)" d="M 312.961316 367.815258 
Q 511.973921 330.152658 709.887991 292.697952 
" style="fill:none;stroke:#808080;stroke-dasharray:3.7,1.6;stroke-dashoffset:0;stroke-linecap:round;"/>
    <path clip-path="url(#p58da293577)" d="M 705.585858 291.47662 
L 709.887991 292.697952 
L 706.329645 295.406859 
L 705.585858 291.47662 
z
" style="fill:#808080;stroke:#808080;stroke-dasharray:3.7,1.6;stroke-dashoffset:0;stroke-linecap:round;"/>
   </g>
   <g id="patch_20">
    <path clip-path="url(#p58da293577)" d="M 308.499697 361.766985 
Q 373.626204 238.516821 438.230371 116.255172 
" style="fill:none;stroke:#808080;stroke-dasharray:3.7,1.6;stroke-dashoffset:0;stroke-linecap:round;"/>
    <path clip-path="url(#p58da293577)" d="M 434.593282 118.857399 
L 438.230371 116.255172 
L 438.129899 120.726179 
L 434.593282 118.857399 
z
" style="fill:#808080;stroke:#808080;stroke-dasharray:3.7,1.6;stroke-dashoffset:0;stroke-linecap:round;"/>
   </g>
   <g id="patch_21">
    <path clip-path="url(#p58da293577)" d="M 310.175839 362.927141 
Q 373.625418 290.881167 436.336071 219.674233 
" style="fill:none;stroke:#808080;stroke-dasharray:3.7,1.6;stroke-dashoffset:0;stroke-linecap:round;"/>
    <path clip-path="url(#p58da293577)" d="M 432.191487 221.354239 
L 436.336071 219.674233 
L 435.193325 223.997904 
L 432.191487 221.354239 
z
" style="fill:#808080;stroke:#808080;stroke-dasharray:3.7,1.6;stroke-dashoffset:0;stroke-linecap:round;"/>
   </g>
   <g id="patch_22">
    <path clip-path="url(#p58da293577)" d="M 312.554946 366.358871 
Q 373.629176 343.242603 433.657765 320.522105 
" style="fill:none;stroke:#808080;stroke-dasharray:3.7,1.6;stroke-dashoffset:0;stroke-linecap:round;"/>
    <path clip-path="url(#p58da293577)" d="M 429.208789 320.067553 
L 433.657765 320.522105 
L 430.624738 323.808554 
L 429.208789 320.067553 
z
" style="fill:#808080;stroke:#808080;stroke-dasharray:3.7,1.6;stroke-dashoffset:0;stroke-linecap:round;"/>
   </g>
   <g id="patch_23">
    <path clip-path="url(#p58da293577)" d="M 312.554946 372.492038 
Q 373.629176 395.608306 433.657765 418.328804 
" style="fill:none;stroke:#808080;stroke-dasharray:3.7,1.6;stroke-dashoffset:0;stroke-linecap:round;"/>
    <path clip-path="url(#p58da293577)" d="M 430.624738 415.042355 
L 433.657765 418.328804 
L 429.208789 418.783356 
L 430.624738 415.042355 
z
" style="fill:#808080;stroke:#808080;stroke-dasharray:3.7,1.6;stroke-dashoffset:0;stroke-linecap:round;"/>
   </g>
   <g id="patch_24">
    <path clip-path="url(#p58da293577)" d="M 442.8 116.265298 
Q 442.8 133.78729 442.8 150.191247 
" style="fill:none;stroke:#808080;stroke-dasharray:3.7,1.6;stroke-dashoffset:0;stroke-linecap:round;"/>
    <path clip-path="url(#p58da293577)" d="M 444.8 146.191247 
L 442.8 150.191247 
L 440.8 146.191247 
L 444.8 146.191247 
z
" style="fill:#808080;stroke:#808080;stroke-dasharray:3.7,1.6;stroke-dashoffset:0;stroke-linecap:round;"/>
   </g>
   <g id="patch_25">
    <path clip-path="url(#p58da293577)" d="M 450.631845 163.676298 
Q 581.14718 225.425489 710.651884 286.696532 
" style="fill:none;stroke:#808080;stroke-dasharray:3.7,1.6;stroke-dashoffset:0;stroke-linecap:round;"/>
    <path clip-path="url(#p58da293577)" d="M 707.891479 283.177987 
L 710.651884 286.696532 
L 706.180805 286.793729 
L 707.891479 283.177987 
z
" style="fill:#808080;stroke:#808080;stroke-dasharray:3.7,1.6;stroke-dashoffset:0;stroke-linecap:round;"/>
   </g>
   <g id="patch_26">
    <path clip-path="url(#p58da293577)" d="M 451.45936 159.970909 
Q 511.97147 159.970909 571.365546 159.970909 
" style="fill:none;stroke:#808080;stroke-dasharray:3.7,1.6;stroke-dashoffset:0;stroke-linecap:round;"/>
    <path clip-path="url(#p58da293577)" d="M 567.365546 157.970909 
L 571.365546 159.970909 
L 567.365546 161.970909 
L 567.365546 157.970909 
z
" style="fill:#808080;stroke:#808080;stroke-dasharray:3.7,1.6;stroke-dashoffset:0;stroke-linecap:round;"/>
   </g>
   <g id="patch_27">
    <path clip-path="url(#p58da293577)" d="M 449.705112 165.198004 
Q 511.97339 212.334422 573.350242 258.796038 
" style="fill:none;stroke:#808080;stroke-dasharray:3.7,1.6;stroke-dashoffset:0;stroke-linecap:round;"/>
    <path clip-path="url(#p58da293577)" d="M 571.368094 254.787162 
L 573.350242 258.796038 
L 568.953852 257.97643 
L 571.368094 254.787162 
z
" style="fill:#808080;stroke:#808080;stroke-dasharray:3.7,1.6;stroke-dashoffset:0;stroke-linecap:round;"/>
   </g>
   <g id="patch_28">
    <path clip-path="url(#p58da293577)" d="M 447.572992 167.197116 
Q 511.974361 264.699404 575.759537 361.268789 
" style="fill:none;stroke:#808080;stroke-dasharray:3.7,1.6;stroke-dashoffset:0;stroke-linecap:round;"/>
    <path clip-path="url(#p58da293577)" d="M 575.223806 356.828858 
L 575.759537 361.268789 
L 571.886153 359.033415 
L 575.223806 356.828858 
z
" style="fill:#808080;stroke:#808080;stroke-dasharray:3.7,1.6;stroke-dashoffset:0;stroke-linecap:round;"/>
   </g>
   <g id="patch_29">
    <path clip-path="url(#p58da293577)" d="M 442.8 220.992571 
Q 442.8 238.514562 442.8 254.91852 
" style="fill:none;stroke:#808080;stroke-dasharray:3.7,1.6;stroke-dashoffset:0;stroke-linecap:round;"/>
    <path clip-path="url(#p58da293577)" d="M 444.8 250.91852 
L 442.8 254.91852 
L 440.8 250.91852 
L 444.8 250.91852 
z
" style="fill:#808080;stroke:#808080;stroke-dasharray:3.7,1.6;stroke-dashoffset:0;stroke-linecap:round;"/>
   </g>
   <g id="patch_30">
    <path clip-path="url(#p58da293577)" d="M 451.425584 265.514366 
Q 581.15066 277.789427 709.762674 289.959166 
" style="fill:none;stroke:#808080;stroke-dasharray:3.7,1.6;stroke-dashoffset:0;stroke-linecap:round;"/>
    <path clip-path="url(#p58da293577)" d="M 705.968868 287.591249 
L 709.762674 289.959166 
L 705.592056 291.573461 
L 705.968868 287.591249 
z
" style="fill:#808080;stroke:#808080;stroke-dasharray:3.7,1.6;stroke-dashoffset:0;stroke-linecap:round;"/>
   </g>
   <g id="patch_31">
    <path clip-path="url(#p58da293577)" d="M 449.705112 259.471087 
Q 511.97339 212.334669 573.350242 165.873053 
" style="fill:none;stroke:#808080;stroke-dasharray:3.7,1.6;stroke-dashoffset:0;stroke-linecap:round;"/>
    <path clip-path="url(#p58da293577)" d="M 568.953852 166.69266 
L 573.350242 165.873053 
L 571.368094 169.881929 
L 568.953852 166.69266 
z
" style="fill:#808080;stroke:#808080;stroke-dasharray:3.7,1.6;stroke-dashoffset:0;stroke-linecap:round;"/>
   </g>
   <g id="patch_32">
    <path clip-path="url(#p58da293577)" d="M 451.45936 264.698182 
Q 511.97147 264.698182 571.365546 264.698182 
" style="fill:none;stroke:#808080;stroke-dasharray:3.7,1.6;stroke-dashoffset:0;stroke-linecap:round;"/>
    <path clip-path="url(#p58da293577)" d="M 567.365546 262.698182 
L 571.365546 264.698182 
L 567.365546 266.698182 
L 567.365546 262.698182 
z
" style="fill:#808080;stroke:#808080;stroke-dasharray:3.7,1.6;stroke-dashoffset:0;stroke-linecap:round;"/>
   </g>
   <g id="patch_33">
    <path clip-path="url(#p58da293577)" d="M 449.705112 269.925277 
Q 511.97339 317.061695 573.350242 363.523311 
" style="fill:none;stroke:#808080;stroke-dasharray:3.7,1.6;stroke-dashoffset:0;stroke-linecap:round;"/>
    <path clip-path="url(#p58da293577)" d="M 571.368094 359.514434 
L 573.350242 363.523311 
L 568.953852 362.703703 
L 571.368094 359.514434 
z
" style="fill:#808080;stroke:#808080;stroke-dasharray:3.7,1.6;stroke-dashoffset:0;stroke-linecap:round;"/>
   </g>
   <g id="patch_34">
    <path clip-path="url(#p58da293577)" d="M 442.8 325.719844 
Q 442.8 343.241835 442.8 359.645792 
" style="fill:none;stroke:#808080;stroke-dasharray:3.7,1.6;stroke-dashoffset:0;stroke-linecap:round;"/>
    <path clip-path="url(#p58da293577)" d="M 444.8 355.645792 
L 442.8 359.645792 
L 440.8 355.645792 
L 444.8 355.645792 
z
" style="fill:#808080;stroke:#808080;stroke-dasharray:3.7,1.6;stroke-dashoffset:0;stroke-linecap:round;"/>
   </g>
   <g id="patch_35">
    <path clip-path="url(#p58da293577)" d="M 451.130043 367.060797 
Q 581.145556 330.153168 710.08553 293.550853 
" style="fill:none;stroke:#808080;stroke-dasharray:3.7,1.6;stroke-dashoffset:0;stroke-linecap:round;"/>
    <path clip-path="url(#p58da293577)" d="M 705.691403 292.719196 
L 710.08553 293.550853 
L 706.783729 296.56716 
L 705.691403 292.719196 
z
" style="fill:#808080;stroke:#808080;stroke-dasharray:3.7,1.6;stroke-dashoffset:0;stroke-linecap:round;"/>
   </g>
   <g id="patch_36">
    <path clip-path="url(#p58da293577)" d="M 447.572992 362.199247 
Q 511.974361 264.69696 575.759537 168.127575 
" style="fill:none;stroke:#808080;stroke-dasharray:3.7,1.6;stroke-dashoffset:0;stroke-linecap:round;"/>
    <path clip-path="url(#p58da293577)" d="M 571.886153 170.362948 
L 575.759537 168.127575 
L 575.223806 172.567506 
L 571.886153 170.362948 
z
" style="fill:#808080;stroke:#808080;stroke-dasharray:3.7,1.6;stroke-dashoffset:0;stroke-linecap:round;"/>
   </g>
   <g id="patch_37">
    <path clip-path="url(#p58da293577)" d="M 449.705112 364.198359 
Q 511.97339 317.061942 573.350242 270.600325 
" style="fill:none;stroke:#808080;stroke-dasharray:3.7,1.6;stroke-dashoffset:0;stroke-linecap:round;"/>
    <path clip-path="url(#p58da293577)" d="M 568.953852 271.419933 
L 573.350242 270.600325 
L 571.368094 274.609202 
L 568.953852 271.419933 
z
" style="fill:#808080;stroke:#808080;stroke-dasharray:3.7,1.6;stroke-dashoffset:0;stroke-linecap:round;"/>
   </g>
   <g id="patch_38">
    <path clip-path="url(#p58da293577)" d="M 451.45936 369.425455 
Q 511.97147 369.425455 571.365546 369.425455 
" style="fill:none;stroke:#808080;stroke-dasharray:3.7,1.6;stroke-dashoffset:0;stroke-linecap:round;"/>
    <path clip-path="url(#p58da293577)" d="M 567.365546 367.425455 
L 571.365546 369.425455 
L 567.365546 371.425455 
L 567.365546 367.425455 
z
" style="fill:#808080;stroke:#808080;stroke-dasharray:3.7,1.6;stroke-dashoffset:0;stroke-linecap:round;"/>
   </g>
   <g id="patch_39">
    <path clip-path="url(#p58da293577)" d="M 442.8 430.447116 
Q 442.8 447.969108 442.8 464.373065 
" style="fill:none;stroke:#808080;stroke-dasharray:3.7,1.6;stroke-dashoffset:0;stroke-linecap:round;"/>
    <path clip-path="url(#p58da293577)" d="M 444.8 460.373065 
L 442.8 464.373065 
L 440.8 460.373065 
L 444.8 460.373065 
z
" style="fill:#808080;stroke:#808080;stroke-dasharray:3.7,1.6;stroke-dashoffset:0;stroke-linecap:round;"/>
   </g>
   <g id="patch_40">
    <path clip-path="url(#p58da293577)" d="M 450.021763 469.36928 
Q 581.149864 382.514538 711.345858 296.277191 
" style="fill:none;stroke:#808080;stroke-dasharray:3.7,1.6;stroke-dashoffset:0;stroke-linecap:round;"/>
    <path clip-path="url(#p58da293577)" d="M 706.906621 296.818649 
L 711.345858 296.277191 
L 709.115482 300.153455 
L 706.906621 296.818649 
z
" style="fill:#808080;stroke:#808080;stroke-dasharray:3.7,1.6;stroke-dashoffset:0;stroke-linecap:round;"/>
   </g>
   <g id="patch_41">
    <path clip-path="url(#p58da293577)" d="M 446.290554 466.225792 
Q 511.973346 317.062289 577.205571 168.922012 
" style="fill:none;stroke:#808080;stroke-dasharray:3.7,1.6;stroke-dashoffset:0;stroke-linecap:round;"/>
    <path clip-path="url(#p58da293577)" d="M 573.763171 171.776812 
L 577.205571 168.922012 
L 577.423971 173.388812 
L 573.763171 171.776812 
z
" style="fill:#808080;stroke:#808080;stroke-dasharray:3.7,1.6;stroke-dashoffset:0;stroke-linecap:round;"/>
   </g>
   <g id="patch_42">
    <path clip-path="url(#p58da293577)" d="M 447.572992 466.92652 
Q 511.974361 369.424232 575.759537 272.854847 
" style="fill:none;stroke:#808080;stroke-dasharray:3.7,1.6;stroke-dashoffset:0;stroke-linecap:round;"/>
    <path clip-path="url(#p58da293577)" d="M 571.886153 275.090221 
L 575.759537 272.854847 
L 575.223806 277.294779 
L 571.886153 275.090221 
z
" style="fill:#808080;stroke:#808080;stroke-dasharray:3.7,1.6;stroke-dashoffset:0;stroke-linecap:round;"/>
   </g>
   <g id="patch_43">
    <path clip-path="url(#p58da293577)" d="M 449.705112 468.925632 
Q 511.97339 421.789215 573.350242 375.327598 
" style="fill:none;stroke:#808080;stroke-dasharray:3.7,1.6;stroke-dashoffset:0;stroke-linecap:round;"/>
    <path clip-path="url(#p58da293577)" d="M 568.953852 376.147206 
L 573.350242 375.327598 
L 571.368094 379.336475 
L 568.953852 376.147206 
z
" style="fill:#808080;stroke:#808080;stroke-dasharray:3.7,1.6;stroke-dashoffset:0;stroke-linecap:round;"/>
   </g>
   <g id="patch_44">
    <path clip-path="url(#p58da293577)" d="M 581.147107 168.628935 
Q 581.147107 186.150926 581.147107 202.554883 
" style="fill:none;stroke:#808080;stroke-dasharray:3.7,1.6;stroke-dashoffset:0;stroke-linecap:round;"/>
    <path clip-path="url(#p58da293577)" d="M 583.147107 198.554883 
L 581.147107 202.554883 
L 579.147107 198.554883 
L 583.147107 198.554883 
z
" style="fill:#808080;stroke:#808080;stroke-dasharray:3.7,1.6;stroke-dashoffset:0;stroke-linecap:round;"/>
   </g>
   <g id="patch_45">
    <path clip-path="url(#p58da293577)" d="M 588.674967 216.608427 
Q 650.317868 251.605687 710.988504 286.050951 
" style="fill:none;stroke:#808080;stroke-dasharray:3.7,1.6;stroke-dashoffset:0;stroke-linecap:round;"/>
    <path clip-path="url(#p58da293577)" d="M 708.497462 282.336829 
L 710.988504 286.050951 
L 706.522581 285.815312 
L 708.497462 282.336829 
z
" style="fill:#808080;stroke:#808080;stroke-dasharray:3.7,1.6;stroke-dashoffset:0;stroke-linecap:round;"/>
   </g>
   <g id="patch_46">
    <path clip-path="url(#p58da293577)" d="M 581.147107 273.356207 
Q 581.147107 290.878199 581.147107 307.282156 
" style="fill:none;stroke:#808080;stroke-dasharray:3.7,1.6;stroke-dashoffset:0;stroke-linecap:round;"/>
    <path clip-path="url(#p58da293577)" d="M 583.147107 303.282156 
L 581.147107 307.282156 
L 579.147107 303.282156 
L 583.147107 303.282156 
z
" style="fill:#808080;stroke:#808080;stroke-dasharray:3.7,1.6;stroke-dashoffset:0;stroke-linecap:round;"/>
   </g>
   <g id="patch_47">
    <path clip-path="url(#p58da293577)" d="M 589.654475 315.451822 
Q 650.320715 303.970899 709.888419 292.697871 
" style="fill:none;stroke:#808080;stroke-dasharray:3.7,1.6;stroke-dashoffset:0;stroke-linecap:round;"/>
    <path clip-path="url(#p58da293577)" d="M 705.586286 291.476539 
L 709.888419 292.697871 
L 706.330073 295.406778 
L 705.586286 291.476539 
z
" style="fill:#808080;stroke:#808080;stroke-dasharray:3.7,1.6;stroke-dashoffset:0;stroke-linecap:round;"/>
   </g>
   <g id="patch_48">
    <path clip-path="url(#p58da293577)" d="M 581.147107 378.08348 
Q 581.147107 395.605471 581.147107 412.009429 
" style="fill:none;stroke:#808080;stroke-dasharray:3.7,1.6;stroke-dashoffset:0;stroke-linecap:round;"/>
    <path clip-path="url(#p58da293577)" d="M 583.147107 408.009429 
L 581.147107 412.009429 
L 579.147107 408.009429 
L 583.147107 408.009429 
z
" style="fill:#808080;stroke:#808080;stroke-dasharray:3.7,1.6;stroke-dashoffset:0;stroke-linecap:round;"/>
   </g>
   <g id="patch_49">
    <path clip-path="url(#p58da293577)" d="M 587.435804 415.838496 
Q 650.320522 356.334677 712.393141 297.599296 
" style="fill:none;stroke:#808080;stroke-dasharray:3.7,1.6;stroke-dashoffset:0;stroke-linecap:round;"/>
    <path clip-path="url(#p58da293577)" d="M 708.113066 298.895815 
L 712.393141 297.599296 
L 710.862311 301.801267 
L 708.113066 298.895815 
z
" style="fill:#808080;stroke:#808080;stroke-dasharray:3.7,1.6;stroke-dashoffset:0;stroke-linecap:round;"/>
   </g>
   <g id="patch_50">
    <path clip-path="url(#p58da293577)" d="M 173.633644 286.606119 
Q 235.276546 251.608858 294.974916 217.71559 
" style="fill:none;stroke:#008000;stroke-linecap:round;stroke-width:2;"/>
    <path clip-path="url(#p58da293577)" d="M 290.508993 217.951229 
L 294.974916 217.71559 
L 292.483874 221.429712 
L 290.508993 217.951229 
z
" style="fill:#008000;stroke:#008000;stroke-linecap:round;stroke-width:2;"/>
   </g>
   <g id="patch_51">
    <path clip-path="url(#p58da293577)" d="M 174.613153 292.489996 
Q 235.279392 303.970919 293.748561 315.036052 
" style="fill:none;stroke:#008000;stroke-linecap:round;stroke-width:2;"/>
    <path clip-path="url(#p58da293577)" d="M 290.190216 312.327145 
L 293.748561 315.036052 
L 289.446428 316.257385 
L 290.190216 312.327145 
z
" style="fill:#008000;stroke:#008000;stroke-linecap:round;stroke-width:2;"/>
   </g>
   <g id="patch_52">
    <path clip-path="url(#p58da293577)" d="M 304.452893 220.992571 
Q 304.452893 238.514562 304.452893 253.800486 
" style="fill:none;stroke:#008000;stroke-linecap:round;stroke-width:2;"/>
    <path clip-path="url(#p58da293577)" d="M 306.452893 249.800486 
L 304.452893 253.800486 
L 302.452893 249.800486 
L 306.452893 249.800486 
z
" style="fill:#008000;stroke:#008000;stroke-linecap:round;stroke-width:2;"/>
   </g>
   <g id="patch_53">
    <path clip-path="url(#p58da293577)" d="M 312.554946 261.631598 
Q 373.629176 238.51533 432.612123 216.190602 
" style="fill:none;stroke:#008000;stroke-linecap:round;stroke-width:2;"/>
    <path clip-path="url(#p58da293577)" d="M 428.163148 215.73605 
L 432.612123 216.190602 
L 429.579097 219.477051 
L 428.163148 215.73605 
z
" style="fill:#008000;stroke:#008000;stroke-linecap:round;stroke-width:2;"/>
   </g>
   <g id="patch_54">
    <path clip-path="url(#p58da293577)" d="M 304.452893 325.719844 
Q 304.452893 343.241835 304.452893 358.527758 
" style="fill:none;stroke:#008000;stroke-linecap:round;stroke-width:2;"/>
    <path clip-path="url(#p58da293577)" d="M 306.452893 354.527758 
L 304.452893 358.527758 
L 302.452893 354.527758 
L 306.452893 354.527758 
z
" style="fill:#008000;stroke:#008000;stroke-linecap:round;stroke-width:2;"/>
   </g>
   <g id="patch_55">
    <path clip-path="url(#p58da293577)" d="M 312.554946 372.492038 
Q 373.629176 395.608306 432.612123 417.933034 
" style="fill:none;stroke:#008000;stroke-linecap:round;stroke-width:2;"/>
    <path clip-path="url(#p58da293577)" d="M 429.579097 414.646585 
L 432.612123 417.933034 
L 428.163148 418.387586 
L 429.579097 414.646585 
z
" style="fill:#008000;stroke:#008000;stroke-linecap:round;stroke-width:2;"/>
   </g>
   <g id="patch_56">
    <path clip-path="url(#p58da293577)" d="M 442.8 220.992571 
Q 442.8 238.514562 442.8 253.800486 
" style="fill:none;stroke:#008000;stroke-linecap:round;stroke-width:2;"/>
    <path clip-path="url(#p58da293577)" d="M 444.8 249.800486 
L 442.8 253.800486 
L 440.8 249.800486 
L 444.8 249.800486 
z
" style="fill:#008000;stroke:#008000;stroke-linecap:round;stroke-width:2;"/>
   </g>
   <g id="patch_57">
    <path clip-path="url(#p58da293577)" d="M 449.705112 259.471087 
Q 511.97339 212.334669 572.458814 166.547854 
" style="fill:none;stroke:#008000;stroke-linecap:round;stroke-width:2;"/>
    <path clip-path="url(#p58da293577)" d="M 568.062424 167.367462 
L 572.458814 166.547854 
L 570.476666 170.55673 
L 568.062424 167.367462 
z
" style="fill:#008000;stroke:#008000;stroke-linecap:round;stroke-width:2;"/>
   </g>
   <g id="patch_58">
    <path clip-path="url(#p58da293577)" d="M 442.8 430.447116 
Q 442.8 447.969108 442.8 463.255031 
" style="fill:none;stroke:#008000;stroke-linecap:round;stroke-width:2;"/>
    <path clip-path="url(#p58da293577)" d="M 444.8 459.255031 
L 442.8 463.255031 
L 440.8 459.255031 
L 444.8 459.255031 
z
" style="fill:#008000;stroke:#008000;stroke-linecap:round;stroke-width:2;"/>
   </g>
   <g id="patch_59">
    <path clip-path="url(#p58da293577)" d="M 449.705112 468.925632 
Q 511.97339 421.789215 572.458814 376.002399 
" style="fill:none;stroke:#008000;stroke-linecap:round;stroke-width:2;"/>
    <path clip-path="url(#p58da293577)" d="M 568.062424 376.822007 
L 572.458814 376.002399 
L 570.476666 380.011276 
L 568.062424 376.822007 
z
" style="fill:#008000;stroke:#008000;stroke-linecap:round;stroke-width:2;"/>
   </g>
   <g id="patch_60">
    <path clip-path="url(#p58da293577)" d="M 581.147107 168.628935 
Q 581.147107 186.150926 581.147107 201.436849 
" style="fill:none;stroke:#008000;stroke-linecap:round;stroke-width:2;"/>
    <path clip-path="url(#p58da293577)" d="M 583.147107 197.436849 
L 581.147107 201.436849 
L 579.147107 197.436849 
L 583.147107 197.436849 
z
" style="fill:#008000;stroke:#008000;stroke-linecap:round;stroke-width:2;"/>
   </g>
   <g id="patch_61">
    <path clip-path="url(#p58da293577)" d="M 588.674967 216.608427 
Q 650.317868 251.605687 710.016239 285.498955 
" style="fill:none;stroke:#008000;stroke-linecap:round;stroke-width:2;"/>
    <path clip-path="url(#p58da293577)" d="M 707.525196 281.784833 
L 710.016239 285.498955 
L 705.550315 285.263316 
L 707.525196 281.784833 
z
" style="fill:#008000;stroke:#008000;stroke-linecap:round;stroke-width:2;"/>
   </g>
   <g id="patch_62">
    <path clip-path="url(#p58da293577)" d="M 581.147107 378.08348 
Q 581.147107 395.605471 581.147107 410.891395 
" style="fill:none;stroke:#008000;stroke-linecap:round;stroke-width:2;"/>
    <path clip-path="url(#p58da293577)" d="M 583.147107 406.891395 
L 581.147107 410.891395 
L 579.147107 406.891395 
L 583.147107 406.891395 
z
" style="fill:#008000;stroke:#008000;stroke-linecap:round;stroke-width:2;"/>
   </g>
   <g id="patch_63">
    <path clip-path="url(#p58da293577)" d="M 587.435804 415.838496 
Q 650.320522 356.334677 711.581042 298.367733 
" style="fill:none;stroke:#008000;stroke-linecap:round;stroke-width:2;"/>
    <path clip-path="url(#p58da293577)" d="M 707.300968 299.664252 
L 711.581042 298.367733 
L 710.050213 302.569704 
L 707.300968 299.664252 
z
" style="fill:#008000;stroke:#008000;stroke-linecap:round;stroke-width:2;"/>
   </g>
   <g id="matplotlib.axis_1">
    <g id="xtick_1"/>
    <g id="xtick_2"/>
    <g id="xtick_3"/>
    <g id="xtick_4"/>
    <g id="xtick_5"/>
    <g id="xtick_6"/>
    <g id="xtick_7"/>
   </g>
   <g id="matplotlib.axis_2">
    <g id="ytick_1"/>
    <g id="ytick_2"/>
    <g id="ytick_3"/>
    <g id="ytick_4"/>
    <g id="ytick_5"/>
   </g>
   <g id="PathCollection_1">
    <defs>
     <path d="M 0 12.247449 
C 3.248061 12.247449 6.363528 10.95698 8.660254 8.660254 
C 10.95698 6.363528 12.247449 3.248061 12.247449 0 
C 12.247449 -3.248061 10.95698 -6.363528 8.660254 -8.660254 
C 6.363528 -10.95698 3.248061 -12.247449 0 -12.247449 
C -3.248061 -12.247449 -6.363528 -10.95698 -8.660254 -8.660254 
C -10.95698 -6.363528 -12.247449 -3.248061 -12.247449 0 
C -12.247449 3.248061 -10.95698 6.363528 -8.660254 8.660254 
C -6.363528 10.95698 -3.248061 12.247449 0 12.247449 
z
" id="mc343e8a45e" style="stroke:#000000;"/>
    </defs>
    <g clip-path="url(#p58da293577)">
     <use style="fill:#ffffff;stroke:#000000;" x="166.105785" xlink:href="#mc343e8a45e" y="290.88"/>
     <use style="fill:#ffffff;stroke:#000000;" x="719.494215" xlink:href="#mc343e8a45e" y="290.88"/>
     <use style="fill:#ffffff;stroke:#000000;" x="304.452893" xlink:href="#mc343e8a45e" y="212.334545"/>
     <use style="fill:#ffffff;stroke:#000000;" x="304.452893" xlink:href="#mc343e8a45e" y="264.698182"/>
     <use style="fill:#ffffff;stroke:#000000;" x="304.452893" xlink:href="#mc343e8a45e" y="317.061818"/>
     <use style="fill:#ffffff;stroke:#000000;" x="304.452893" xlink:href="#mc343e8a45e" y="369.425455"/>
     <use style="fill:#ffffff;stroke:#000000;" x="442.8" xlink:href="#mc343e8a45e" y="107.607273"/>
     <use style="fill:#ffffff;stroke:#000000;" x="442.8" xlink:href="#mc343e8a45e" y="159.970909"/>
     <use style="fill:#ffffff;stroke:#000000;" x="442.8" xlink:href="#mc343e8a45e" y="212.334545"/>
     <use style="fill:#ffffff;stroke:#000000;" x="442.8" xlink:href="#mc343e8a45e" y="264.698182"/>
     <use style="fill:#ffffff;stroke:#000000;" x="442.8" xlink:href="#mc343e8a45e" y="317.061818"/>
     <use style="fill:#ffffff;stroke:#000000;" x="442.8" xlink:href="#mc343e8a45e" y="369.425455"/>
     <use style="fill:#ffffff;stroke:#000000;" x="442.8" xlink:href="#mc343e8a45e" y="421.789091"/>
     <use style="fill:#ffffff;stroke:#000000;" x="442.8" xlink:href="#mc343e8a45e" y="474.152727"/>
     <use style="fill:#ffffff;stroke:#000000;" x="581.147107" xlink:href="#mc343e8a45e" y="159.970909"/>
     <use style="fill:#ffffff;stroke:#000000;" x="581.147107" xlink:href="#mc343e8a45e" y="212.334545"/>
     <use style="fill:#ffffff;stroke:#000000;" x="581.147107" xlink:href="#mc343e8a45e" y="264.698182"/>
     <use style="fill:#ffffff;stroke:#000000;" x="581.147107" xlink:href="#mc343e8a45e" y="317.061818"/>
     <use style="fill:#ffffff;stroke:#000000;" x="581.147107" xlink:href="#mc343e8a45e" y="369.425455"/>
     <use style="fill:#ffffff;stroke:#000000;" x="581.147107" xlink:href="#mc343e8a45e" y="421.789091"/>
    </g>
   </g>
   <g id="patch_64">
    <path d="M 108 512.64 
L 108 69.12 
" style="fill:none;stroke:#000000;stroke-linecap:square;stroke-linejoin:miter;stroke-width:0.8;"/>
   </g>
   <g id="patch_65">
    <path d="M 777.6 512.64 
L 777.6 69.12 
" style="fill:none;stroke:#000000;stroke-linecap:square;stroke-linejoin:miter;stroke-width:0.8;"/>
   </g>
   <g id="patch_66">
    <path d="M 108 512.64 
L 777.6 512.64 
" style="fill:none;stroke:#000000;stroke-linecap:square;stroke-linejoin:miter;stroke-width:0.8;"/>
   </g>
   <g id="patch_67">
    <path d="M 108 69.12 
L 777.6 69.12 
" style="fill:none;stroke:#000000;stroke-linecap:square;stroke-linejoin:miter;stroke-width:0.8;"/>
   </g>
   <g id="text_1">
    <g clip-path="url(#p58da293577)">
     <!-- S -->
     <g transform="translate(163.56641 293.0875)scale(0.08 -0.08)">
      <defs>
       <path d="M 3425 4513 
L 3425 3897 
Q 3066 4069 2747 4153 
Q 2428 4238 2131 4238 
Q 1616 4238 1336 4038 
Q 1056 3838 1056 3469 
Q 1056 3159 1242 3001 
Q 1428 2844 1947 2747 
L 2328 2669 
Q 3034 2534 3370 2195 
Q 3706 1856 3706 1288 
Q 3706 609 3251 259 
Q 2797 -91 1919 -91 
Q 1588 -91 1214 -16 
Q 841 59 441 206 
L 441 856 
Q 825 641 1194 531 
Q 1563 422 1919 422 
Q 2459 422 2753 634 
Q 3047 847 3047 1241 
Q 3047 1584 2836 1778 
Q 2625 1972 2144 2069 
L 1759 2144 
Q 1053 2284 737 2584 
Q 422 2884 422 3419 
Q 422 4038 858 4394 
Q 1294 4750 2059 4750 
Q 2388 4750 2728 4690 
Q 3069 4631 3425 4513 
z
" id="DejaVuSans-53" transform="scale(0.015625)"/>
      </defs>
      <use xlink:href="#DejaVuSans-53"/>
     </g>
    </g>
   </g>
   <g id="text_2">
    <g clip-path="url(#p58da293577)">
     <!-- T -->
     <g transform="translate(717.05109 293.0875)scale(0.08 -0.08)">
      <defs>
       <path d="M -19 4666 
L 3928 4666 
L 3928 4134 
L 2272 4134 
L 2272 0 
L 1638 0 
L 1638 4134 
L -19 4134 
L -19 4666 
z
" id="DejaVuSans-54" transform="scale(0.015625)"/>
      </defs>
      <use xlink:href="#DejaVuSans-54"/>
     </g>
    </g>
   </g>
   <g id="text_3">
    <g clip-path="url(#p58da293577)">
     <!-- (0,0,u) -->
     <g transform="translate(291.164143 214.542045)scale(0.08 -0.08)">
      <defs>
       <path d="M 1984 4856 
Q 1566 4138 1362 3434 
Q 1159 2731 1159 2009 
Q 1159 1288 1364 580 
Q 1569 -128 1984 -844 
L 1484 -844 
Q 1016 -109 783 600 
Q 550 1309 550 2009 
Q 550 2706 781 3412 
Q 1013 4119 1484 4856 
L 1984 4856 
z
" id="DejaVuSans-28" transform="scale(0.015625)"/>
       <path d="M 2034 4250 
Q 1547 4250 1301 3770 
Q 1056 3291 1056 2328 
Q 1056 1369 1301 889 
Q 1547 409 2034 409 
Q 2525 409 2770 889 
Q 3016 1369 3016 2328 
Q 3016 3291 2770 3770 
Q 2525 4250 2034 4250 
z
M 2034 4750 
Q 2819 4750 3233 4129 
Q 3647 3509 3647 2328 
Q 3647 1150 3233 529 
Q 2819 -91 2034 -91 
Q 1250 -91 836 529 
Q 422 1150 422 2328 
Q 422 3509 836 4129 
Q 1250 4750 2034 4750 
z
" id="DejaVuSans-30" transform="scale(0.015625)"/>
       <path d="M 750 794 
L 1409 794 
L 1409 256 
L 897 -744 
L 494 -744 
L 750 256 
L 750 794 
z
" id="DejaVuSans-2c" transform="scale(0.015625)"/>
       <path d="M 544 1381 
L 544 3500 
L 1119 3500 
L 1119 1403 
Q 1119 906 1312 657 
Q 1506 409 1894 409 
Q 2359 409 2629 706 
Q 2900 1003 2900 1516 
L 2900 3500 
L 3475 3500 
L 3475 0 
L 2900 0 
L 2900 538 
Q 2691 219 2414 64 
Q 2138 -91 1772 -91 
Q 1169 -91 856 284 
Q 544 659 544 1381 
z
M 1991 3584 
L 1991 3584 
z
" id="DejaVuSans-75" transform="scale(0.015625)"/>
       <path d="M 513 4856 
L 1013 4856 
Q 1481 4119 1714 3412 
Q 1947 2706 1947 2009 
Q 1947 1309 1714 600 
Q 1481 -109 1013 -844 
L 513 -844 
Q 928 -128 1133 580 
Q 1338 1288 1338 2009 
Q 1338 2731 1133 3434 
Q 928 4138 513 4856 
z
" id="DejaVuSans-29" transform="scale(0.015625)"/>
      </defs>
      <use xlink:href="#DejaVuSans-28"/>
      <use x="39.013672" xlink:href="#DejaVuSans-30"/>
      <use x="102.636719" xlink:href="#DejaVuSans-2c"/>
      <use x="134.423828" xlink:href="#DejaVuSans-30"/>
      <use x="198.046875" xlink:href="#DejaVuSans-2c"/>
      <use x="229.833984" xlink:href="#DejaVuSans-75"/>
      <use x="293.212891" xlink:href="#DejaVuSans-29"/>
     </g>
    </g>
   </g>
   <g id="text_4">
    <g clip-path="url(#p58da293577)">
     <!-- (0,0,v) -->
     <g transform="translate(291.331643 266.905682)scale(0.08 -0.08)">
      <defs>
       <path d="M 191 3500 
L 800 3500 
L 1894 563 
L 2988 3500 
L 3597 3500 
L 2284 0 
L 1503 0 
L 191 3500 
z
" id="DejaVuSans-76" transform="scale(0.015625)"/>
      </defs>
      <use xlink:href="#DejaVuSans-28"/>
      <use x="39.013672" xlink:href="#DejaVuSans-30"/>
      <use x="102.636719" xlink:href="#DejaVuSans-2c"/>
      <use x="134.423828" xlink:href="#DejaVuSans-30"/>
      <use x="198.046875" xlink:href="#DejaVuSans-2c"/>
      <use x="229.833984" xlink:href="#DejaVuSans-76"/>
      <use x="289.013672" xlink:href="#DejaVuSans-29"/>
     </g>
    </g>
   </g>
   <g id="text_5">
    <g clip-path="url(#p58da293577)">
     <!-- (0,1,u) -->
     <g transform="translate(291.164143 319.269318)scale(0.08 -0.08)">
      <defs>
       <path d="M 794 531 
L 1825 531 
L 1825 4091 
L 703 3866 
L 703 4441 
L 1819 4666 
L 2450 4666 
L 2450 531 
L 3481 531 
L 3481 0 
L 794 0 
L 794 531 
z
" id="DejaVuSans-31" transform="scale(0.015625)"/>
      </defs>
      <use xlink:href="#DejaVuSans-28"/>
      <use x="39.013672" xlink:href="#DejaVuSans-30"/>
      <use x="102.636719" xlink:href="#DejaVuSans-2c"/>
      <use x="134.423828" xlink:href="#DejaVuSans-31"/>
      <use x="198.046875" xlink:href="#DejaVuSans-2c"/>
      <use x="229.833984" xlink:href="#DejaVuSans-75"/>
      <use x="293.212891" xlink:href="#DejaVuSans-29"/>
     </g>
    </g>
   </g>
   <g id="text_6">
    <g clip-path="url(#p58da293577)">
     <!-- (0,1,v) -->
     <g transform="translate(291.331643 371.632955)scale(0.08 -0.08)">
      <use xlink:href="#DejaVuSans-28"/>
      <use x="39.013672" xlink:href="#DejaVuSans-30"/>
      <use x="102.636719" xlink:href="#DejaVuSans-2c"/>
      <use x="134.423828" xlink:href="#DejaVuSans-31"/>
      <use x="198.046875" xlink:href="#DejaVuSans-2c"/>
      <use x="229.833984" xlink:href="#DejaVuSans-76"/>
      <use x="289.013672" xlink:href="#DejaVuSans-29"/>
     </g>
    </g>
   </g>
   <g id="text_7">
    <g clip-path="url(#p58da293577)">
     <!-- (1,0,u) -->
     <g transform="translate(429.51125 109.814773)scale(0.08 -0.08)">
      <use xlink:href="#DejaVuSans-28"/>
      <use x="39.013672" xlink:href="#DejaVuSans-31"/>
      <use x="102.636719" xlink:href="#DejaVuSans-2c"/>
      <use x="134.423828" xlink:href="#DejaVuSans-30"/>
      <use x="198.046875" xlink:href="#DejaVuSans-2c"/>
      <use x="229.833984" xlink:href="#DejaVuSans-75"/>
      <use x="293.212891" xlink:href="#DejaVuSans-29"/>
     </g>
    </g>
   </g>
   <g id="text_8">
    <g clip-path="url(#p58da293577)">
     <!-- (1,0,v) -->
     <g transform="translate(429.67875 162.178409)scale(0.08 -0.08)">
      <use xlink:href="#DejaVuSans-28"/>
      <use x="39.013672" xlink:href="#DejaVuSans-31"/>
      <use x="102.636719" xlink:href="#DejaVuSans-2c"/>
      <use x="134.423828" xlink:href="#DejaVuSans-30"/>
      <use x="198.046875" xlink:href="#DejaVuSans-2c"/>
      <use x="229.833984" xlink:href="#DejaVuSans-76"/>
      <use x="289.013672" xlink:href="#DejaVuSans-29"/>
     </g>
    </g>
   </g>
   <g id="text_9">
    <g clip-path="url(#p58da293577)">
     <!-- (1,1,u) -->
     <g transform="translate(429.51125 214.542045)scale(0.08 -0.08)">
      <use xlink:href="#DejaVuSans-28"/>
      <use x="39.013672" xlink:href="#DejaVuSans-31"/>
      <use x="102.636719" xlink:href="#DejaVuSans-2c"/>
      <use x="134.423828" xlink:href="#DejaVuSans-31"/>
      <use x="198.046875" xlink:href="#DejaVuSans-2c"/>
      <use x="229.833984" xlink:href="#DejaVuSans-75"/>
      <use x="293.212891" xlink:href="#DejaVuSans-29"/>
     </g>
    </g>
   </g>
   <g id="text_10">
    <g clip-path="url(#p58da293577)">
     <!-- (1,1,v) -->
     <g transform="translate(429.67875 266.905682)scale(0.08 -0.08)">
      <use xlink:href="#DejaVuSans-28"/>
      <use x="39.013672" xlink:href="#DejaVuSans-31"/>
      <use x="102.636719" xlink:href="#DejaVuSans-2c"/>
      <use x="134.423828" xlink:href="#DejaVuSans-31"/>
      <use x="198.046875" xlink:href="#DejaVuSans-2c"/>
      <use x="229.833984" xlink:href="#DejaVuSans-76"/>
      <use x="289.013672" xlink:href="#DejaVuSans-29"/>
     </g>
    </g>
   </g>
   <g id="text_11">
    <g clip-path="url(#p58da293577)">
     <!-- (1,2,u) -->
     <g transform="translate(429.51125 319.269318)scale(0.08 -0.08)">
      <defs>
       <path d="M 1228 531 
L 3431 531 
L 3431 0 
L 469 0 
L 469 531 
Q 828 903 1448 1529 
Q 2069 2156 2228 2338 
Q 2531 2678 2651 2914 
Q 2772 3150 2772 3378 
Q 2772 3750 2511 3984 
Q 2250 4219 1831 4219 
Q 1534 4219 1204 4116 
Q 875 4013 500 3803 
L 500 4441 
Q 881 4594 1212 4672 
Q 1544 4750 1819 4750 
Q 2544 4750 2975 4387 
Q 3406 4025 3406 3419 
Q 3406 3131 3298 2873 
Q 3191 2616 2906 2266 
Q 2828 2175 2409 1742 
Q 1991 1309 1228 531 
z
" id="DejaVuSans-32" transform="scale(0.015625)"/>
      </defs>
      <use xlink:href="#DejaVuSans-28"/>
      <use x="39.013672" xlink:href="#DejaVuSans-31"/>
      <use x="102.636719" xlink:href="#DejaVuSans-2c"/>
      <use x="134.423828" xlink:href="#DejaVuSans-32"/>
      <use x="198.046875" xlink:href="#DejaVuSans-2c"/>
      <use x="229.833984" xlink:href="#DejaVuSans-75"/>
      <use x="293.212891" xlink:href="#DejaVuSans-29"/>
     </g>
    </g>
   </g>
   <g id="text_12">
    <g clip-path="url(#p58da293577)">
     <!-- (1,2,v) -->
     <g transform="translate(429.67875 371.632955)scale(0.08 -0.08)">
      <use xlink:href="#DejaVuSans-28"/>
      <use x="39.013672" xlink:href="#DejaVuSans-31"/>
      <use x="102.636719" xlink:href="#DejaVuSans-2c"/>
      <use x="134.423828" xlink:href="#DejaVuSans-32"/>
      <use x="198.046875" xlink:href="#DejaVuSans-2c"/>
      <use x="229.833984" xlink:href="#DejaVuSans-76"/>
      <use x="289.013672" xlink:href="#DejaVuSans-29"/>
     </g>
    </g>
   </g>
   <g id="text_13">
    <g clip-path="url(#p58da293577)">
     <!-- (1,3,u) -->
     <g transform="translate(429.51125 423.996591)scale(0.08 -0.08)">
      <defs>
       <path d="M 2597 2516 
Q 3050 2419 3304 2112 
Q 3559 1806 3559 1356 
Q 3559 666 3084 287 
Q 2609 -91 1734 -91 
Q 1441 -91 1130 -33 
Q 819 25 488 141 
L 488 750 
Q 750 597 1062 519 
Q 1375 441 1716 441 
Q 2309 441 2620 675 
Q 2931 909 2931 1356 
Q 2931 1769 2642 2001 
Q 2353 2234 1838 2234 
L 1294 2234 
L 1294 2753 
L 1863 2753 
Q 2328 2753 2575 2939 
Q 2822 3125 2822 3475 
Q 2822 3834 2567 4026 
Q 2313 4219 1838 4219 
Q 1578 4219 1281 4162 
Q 984 4106 628 3988 
L 628 4550 
Q 988 4650 1302 4700 
Q 1616 4750 1894 4750 
Q 2613 4750 3031 4423 
Q 3450 4097 3450 3541 
Q 3450 3153 3228 2886 
Q 3006 2619 2597 2516 
z
" id="DejaVuSans-33" transform="scale(0.015625)"/>
      </defs>
      <use xlink:href="#DejaVuSans-28"/>
      <use x="39.013672" xlink:href="#DejaVuSans-31"/>
      <use x="102.636719" xlink:href="#DejaVuSans-2c"/>
      <use x="134.423828" xlink:href="#DejaVuSans-33"/>
      <use x="198.046875" xlink:href="#DejaVuSans-2c"/>
      <use x="229.833984" xlink:href="#DejaVuSans-75"/>
      <use x="293.212891" xlink:href="#DejaVuSans-29"/>
     </g>
    </g>
   </g>
   <g id="text_14">
    <g clip-path="url(#p58da293577)">
     <!-- (1,3,v) -->
     <g transform="translate(429.67875 476.360227)scale(0.08 -0.08)">
      <use xlink:href="#DejaVuSans-28"/>
      <use x="39.013672" xlink:href="#DejaVuSans-31"/>
      <use x="102.636719" xlink:href="#DejaVuSans-2c"/>
      <use x="134.423828" xlink:href="#DejaVuSans-33"/>
      <use x="198.046875" xlink:href="#DejaVuSans-2c"/>
      <use x="229.833984" xlink:href="#DejaVuSans-76"/>
      <use x="289.013672" xlink:href="#DejaVuSans-29"/>
     </g>
    </g>
   </g>
   <g id="text_15">
    <g clip-path="url(#p58da293577)">
     <!-- (2,0,u) -->
     <g transform="translate(567.858357 162.178409)scale(0.08 -0.08)">
      <use xlink:href="#DejaVuSans-28"/>
      <use x="39.013672" xlink:href="#DejaVuSans-32"/>
      <use x="102.636719" xlink:href="#DejaVuSans-2c"/>
      <use x="134.423828" xlink:href="#DejaVuSans-30"/>
      <use x="198.046875" xlink:href="#DejaVuSans-2c"/>
      <use x="229.833984" xlink:href="#DejaVuSans-75"/>
      <use x="293.212891" xlink:href="#DejaVuSans-29"/>
     </g>
    </g>
   </g>
   <g id="text_16">
    <g clip-path="url(#p58da293577)">
     <!-- (2,0,v) -->
     <g transform="translate(568.025857 214.542045)scale(0.08 -0.08)">
      <use xlink:href="#DejaVuSans-28"/>
      <use x="39.013672" xlink:href="#DejaVuSans-32"/>
      <use x="102.636719" xlink:href="#DejaVuSans-2c"/>
      <use x="134.423828" xlink:href="#DejaVuSans-30"/>
      <use x="198.046875" xlink:href="#DejaVuSans-2c"/>
      <use x="229.833984" xlink:href="#DejaVuSans-76"/>
      <use x="289.013672" xlink:href="#DejaVuSans-29"/>
     </g>
    </g>
   </g>
   <g id="text_17">
    <g clip-path="url(#p58da293577)">
     <!-- (2,1,u) -->
     <g transform="translate(567.858357 266.905682)scale(0.08 -0.08)">
      <use xlink:href="#DejaVuSans-28"/>
      <use x="39.013672" xlink:href="#DejaVuSans-32"/>
      <use x="102.636719" xlink:href="#DejaVuSans-2c"/>
      <use x="134.423828" xlink:href="#DejaVuSans-31"/>
      <use x="198.046875" xlink:href="#DejaVuSans-2c"/>
      <use x="229.833984" xlink:href="#DejaVuSans-75"/>
      <use x="293.212891" xlink:href="#DejaVuSans-29"/>
     </g>
    </g>
   </g>
   <g id="text_18">
    <g clip-path="url(#p58da293577)">
     <!-- (2,1,v) -->
     <g transform="translate(568.025857 319.269318)scale(0.08 -0.08)">
      <use xlink:href="#DejaVuSans-28"/>
      <use x="39.013672" xlink:href="#DejaVuSans-32"/>
      <use x="102.636719" xlink:href="#DejaVuSans-2c"/>
      <use x="134.423828" xlink:href="#DejaVuSans-31"/>
      <use x="198.046875" xlink:href="#DejaVuSans-2c"/>
      <use x="229.833984" xlink:href="#DejaVuSans-76"/>
      <use x="289.013672" xlink:href="#DejaVuSans-29"/>
     </g>
    </g>
   </g>
   <g id="text_19">
    <g clip-path="url(#p58da293577)">
     <!-- (2,2,u) -->
     <g transform="translate(567.858357 371.632955)scale(0.08 -0.08)">
      <use xlink:href="#DejaVuSans-28"/>
      <use x="39.013672" xlink:href="#DejaVuSans-32"/>
      <use x="102.636719" xlink:href="#DejaVuSans-2c"/>
      <use x="134.423828" xlink:href="#DejaVuSans-32"/>
      <use x="198.046875" xlink:href="#DejaVuSans-2c"/>
      <use x="229.833984" xlink:href="#DejaVuSans-75"/>
      <use x="293.212891" xlink:href="#DejaVuSans-29"/>
     </g>
    </g>
   </g>
   <g id="text_20">
    <g clip-path="url(#p58da293577)">
     <!-- (2,2,v) -->
     <g transform="translate(568.025857 423.996591)scale(0.08 -0.08)">
      <use xlink:href="#DejaVuSans-28"/>
      <use x="39.013672" xlink:href="#DejaVuSans-32"/>
      <use x="102.636719" xlink:href="#DejaVuSans-2c"/>
      <use x="134.423828" xlink:href="#DejaVuSans-32"/>
      <use x="198.046875" xlink:href="#DejaVuSans-2c"/>
      <use x="229.833984" xlink:href="#DejaVuSans-76"/>
      <use x="289.013672" xlink:href="#DejaVuSans-29"/>
     </g>
    </g>
   </g>
  </g>
 </g>
 <defs>
  <clipPath id="p58da293577">
   <rect height="443.52" width="669.6" x="108" y="69.12"/>
  </clipPath>
 </defs>
</svg>
