<?xml version="1.0" encoding="utf-8" standalone="no"?>
<!DOCTYPE svg PUBLIC "-//W3C//DTD SVG 1.1//EN"
  "http://www.w3.org/Graphics/SVG/1.1/DTD/svg11.dtd">
<svg height="550.8pt" version="1.1" viewBox="0 0 717.84 550.8" width="717.84pt" xmlns="http://www.w3.org/2000/svg" xmlns:xlink="http://www.w3.org/1999/xlink">
 <metadata>
  <rdf:RDF xmlns:cc="http://creativecommons.org/ns#" xmlns:dc="http://purl.org/dc/elements/1.1/" xmlns:rdf="http://www.w3.org/1999/02/22-rdf-syntax-ns#">
   <cc:Work>
    <dc:type rdf:resource="http://purl.org/dc/dcmitype/StillImage"/>
    <dc:date>2021-07-22T20:41:54.240608</dc:date>
    <dc:format>image/svg+xml</dc:format>
    <dc:creator>
     <cc:Agent>
      <dc:title>Matplotlib v3.4.2, https://matplotlib.org/</dc:title>
     </cc:Agent>
    </dc:creator>
   </cc:Work>
  </rdf:RDF>
 </metadata>
 <defs>
  <style type="text/css">*{stroke-linecap:butt;stroke-linejoin:round;}</style>
 </defs>
 <g id="figure_1">
  <g id="patch_1">
   <path d="M 0 550.8 
L 717.84 550.8 
L 717.84 0 
L 0 0 
z
" style="fill:#ffffff;"/>
  </g>
  <g id="axes_1">
   <g id="patch_2">
    <path d="M 89.73 490.212 
L 646.056 490.212 
L 646.056 66.096 
L 89.73 66.096 
z
" style="fill:#ffffff;"/>
   </g>
   <g id="patch_3">
    <path clip-path="url(#pe8a794a1fe)" d="M 136.708071 270.495105 
Q 171.238144 208.916699 240.514966 203.581153 
" style="fill:none;stroke:#800080;stroke-linecap:round;"/>
    <path clip-path="url(#pe8a794a1fe)" d="M 236.373196 201.89422 
L 240.514966 203.581153 
L 236.680358 205.882409 
L 236.373196 201.89422 
z
" style="fill:#800080;stroke:#800080;stroke-linecap:round;"/>
   </g>
   <g id="patch_4">
    <path clip-path="url(#pe8a794a1fe)" d="M 140.927148 275.57374 
Q 198.094961 259.539261 242.9161 296.752068 
" style="fill:none;stroke:#800080;stroke-linecap:round;"/>
    <path clip-path="url(#pe8a794a1fe)" d="M 241.116123 292.65816 
L 242.9161 296.752068 
L 238.560987 295.735705 
L 241.116123 292.65816 
z
" style="fill:#800080;stroke:#800080;stroke-linecap:round;"/>
   </g>
   <g id="patch_5">
    <path clip-path="url(#pe8a794a1fe)" d="M 136.044061 270.180872 
Q 200.312847 123.46116 358.178783 103.997121 
" style="fill:none;stroke:#800080;stroke-linecap:round;"/>
    <path clip-path="url(#pe8a794a1fe)" d="M 353.964108 102.501624 
L 358.178783 103.997121 
L 354.45358 106.471563 
L 353.964108 102.501624 
z
" style="fill:#800080;stroke:#800080;stroke-linecap:round;"/>
   </g>
   <g id="patch_6">
    <path clip-path="url(#pe8a794a1fe)" d="M 138.467176 271.727247 
Q 229.068887 174.178868 358.341713 200.946071 
" style="fill:none;stroke:#800080;stroke-linecap:round;"/>
    <path clip-path="url(#pe8a794a1fe)" d="M 354.830316 198.176578 
L 358.341713 200.946071 
L 354.01928 202.093493 
L 354.830316 198.176578 
z
" style="fill:#800080;stroke:#800080;stroke-linecap:round;"/>
   </g>
   <g id="patch_7">
    <path clip-path="url(#pe8a794a1fe)" d="M 140.568524 274.619425 
Q 257.326575 224.429685 359.993905 297.422194 
" style="fill:none;stroke:#800080;stroke-linecap:round;"/>
    <path clip-path="url(#pe8a794a1fe)" d="M 357.892739 293.474397 
L 359.993905 297.422194 
L 355.574968 296.734449 
L 357.892739 293.474397 
z
" style="fill:#800080;stroke:#800080;stroke-linecap:round;"/>
   </g>
   <g id="patch_8">
    <path clip-path="url(#pe8a794a1fe)" d="M 141.309359 277.81734 
Q 285.78051 274.024445 362.738424 395.026858 
" style="fill:none;stroke:#800080;stroke-linecap:round;"/>
    <path clip-path="url(#pe8a794a1fe)" d="M 362.279387 390.578343 
L 362.738424 395.026858 
L 358.90419 392.724979 
L 362.279387 390.578343 
z
" style="fill:#800080;stroke:#800080;stroke-linecap:round;"/>
   </g>
   <g id="patch_9">
    <path clip-path="url(#pe8a794a1fe)" d="M 138.226793 271.522003 
Q 272.996813 113.845713 475.905405 151.128791 
" style="fill:none;stroke:#800080;stroke-linecap:round;"/>
    <path clip-path="url(#pe8a794a1fe)" d="M 472.332701 148.43885 
L 475.905405 151.128791 
L 471.609829 152.37299 
L 472.332701 148.43885 
z
" style="fill:#800080;stroke:#800080;stroke-linecap:round;"/>
   </g>
   <g id="patch_10">
    <path clip-path="url(#pe8a794a1fe)" d="M 139.798436 273.250514 
Q 301.883856 164.15621 476.74296 248.78372 
" style="fill:none;stroke:#800080;stroke-linecap:round;"/>
    <path clip-path="url(#pe8a794a1fe)" d="M 474.013745 245.240927 
L 476.74296 248.78372 
L 472.271196 248.841417 
L 474.013745 245.240927 
z
" style="fill:#800080;stroke:#800080;stroke-linecap:round;"/>
   </g>
   <g id="patch_11">
    <path clip-path="url(#pe8a794a1fe)" d="M 140.876973 275.417269 
Q 330.703027 214.145398 478.286106 346.668709 
" style="fill:none;stroke:#800080;stroke-linecap:round;"/>
    <path clip-path="url(#pe8a794a1fe)" d="M 476.646158 342.508112 
L 478.286106 346.668709 
L 473.97366 345.484309 
L 476.646158 342.508112 
z
" style="fill:#800080;stroke:#800080;stroke-linecap:round;"/>
   </g>
   <g id="patch_12">
    <path clip-path="url(#pe8a794a1fe)" d="M 257.414926 258.021123 
Q 419.500346 367.115426 594.35945 282.487916 
" style="fill:none;stroke:#008000;stroke-linecap:round;"/>
    <path clip-path="url(#pe8a794a1fe)" d="M 589.887687 282.43022 
L 594.35945 282.487916 
L 591.630235 286.030709 
L 589.887687 282.43022 
z
" style="fill:#008000;stroke:#008000;stroke-linecap:round;"/>
   </g>
   <g id="patch_13">
    <path clip-path="url(#pe8a794a1fe)" d="M 258.493463 355.999822 
Q 448.319517 417.271693 595.902597 284.748382 
" style="fill:none;stroke:#008000;stroke-linecap:round;"/>
    <path clip-path="url(#pe8a794a1fe)" d="M 591.59015 285.932782 
L 595.902597 284.748382 
L 594.262649 288.908979 
L 591.59015 285.932782 
z
" style="fill:#008000;stroke:#008000;stroke-linecap:round;"/>
   </g>
   <g id="patch_14">
    <path clip-path="url(#pe8a794a1fe)" d="M 372.445365 160.334274 
Q 450.002328 282.281873 593.354878 278.520096 
" style="fill:none;stroke:#008000;stroke-linecap:round;"/>
    <path clip-path="url(#pe8a794a1fe)" d="M 589.30379 276.625714 
L 593.354878 278.520096 
L 589.408719 280.624338 
L 589.30379 276.625714 
z
" style="fill:#008000;stroke:#008000;stroke-linecap:round;"/>
   </g>
   <g id="patch_15">
    <path clip-path="url(#pe8a794a1fe)" d="M 374.880382 258.237614 
Q 478.458893 331.878258 594.189755 282.13035 
" style="fill:none;stroke:#008000;stroke-linecap:round;"/>
    <path clip-path="url(#pe8a794a1fe)" d="M 589.725054 281.87259 
L 594.189755 282.13035 
L 591.304726 285.547455 
L 589.725054 281.87259 
z
" style="fill:#008000;stroke:#008000;stroke-linecap:round;"/>
   </g>
   <g id="patch_16">
    <path clip-path="url(#pe8a794a1fe)" d="M 376.350002 355.135346 
Q 506.717558 382.12899 596.558329 285.399561 
" style="fill:none;stroke:#008000;stroke-linecap:round;"/>
    <path clip-path="url(#pe8a794a1fe)" d="M 592.370758 286.969354 
L 596.558329 285.399561 
L 595.301621 289.691493 
L 592.370758 286.969354 
z
" style="fill:#008000;stroke:#008000;stroke-linecap:round;"/>
   </g>
   <g id="patch_17">
    <path clip-path="url(#pe8a794a1fe)" d="M 376.501045 452.447264 
Q 535.475582 432.845031 599.294756 287.148032 
" style="fill:none;stroke:#008000;stroke-linecap:round;"/>
    <path clip-path="url(#pe8a794a1fe)" d="M 595.857901 290.009504 
L 599.294756 287.148032 
L 599.521822 291.614399 
L 595.857901 290.009504 
z
" style="fill:#008000;stroke:#008000;stroke-linecap:round;"/>
   </g>
   <g id="patch_18">
    <path clip-path="url(#pe8a794a1fe)" d="M 489.557542 210.703804 
Q 524.087615 272.28221 593.364437 277.617756 
" style="fill:none;stroke:#008000;stroke-linecap:round;"/>
    <path clip-path="url(#pe8a794a1fe)" d="M 589.529829 275.3165 
L 593.364437 277.617756 
L 589.222668 279.304689 
L 589.529829 275.3165 
z
" style="fill:#008000;stroke:#008000;stroke-linecap:round;"/>
   </g>
   <g id="patch_19">
    <path clip-path="url(#pe8a794a1fe)" d="M 493.776619 305.770624 
Q 550.944433 321.805102 595.765571 284.592295 
" style="fill:none;stroke:#008000;stroke-linecap:round;"/>
    <path clip-path="url(#pe8a794a1fe)" d="M 591.410459 285.608658 
L 595.765571 284.592295 
L 593.965594 288.686203 
L 591.410459 285.608658 
z
" style="fill:#008000;stroke:#008000;stroke-linecap:round;"/>
   </g>
   <g id="patch_20">
    <path clip-path="url(#pe8a794a1fe)" d="M 493.791222 400.813512 
Q 578.730928 373.080116 600.84324 287.661894 
" style="fill:none;stroke:#008000;stroke-linecap:round;"/>
    <path clip-path="url(#pe8a794a1fe)" d="M 597.904624 291.033026 
L 600.84324 287.661894 
L 601.776976 292.035466 
L 597.904624 291.033026 
z
" style="fill:#008000;stroke:#008000;stroke-linecap:round;"/>
   </g>
   <g id="patch_21">
    <path clip-path="url(#pe8a794a1fe)" d="M 250.27651 211.703114 
Q 250.27651 228.07909 250.27651 243.337031 
" style="fill:none;stroke:#0000ff;stroke-dasharray:3.7,1.6;stroke-dashoffset:0;stroke-linecap:round;"/>
    <path clip-path="url(#pe8a794a1fe)" d="M 252.27651 239.337031 
L 250.27651 243.337031 
L 248.27651 239.337031 
L 252.27651 239.337031 
z
" style="fill:#0000ff;stroke:#0000ff;stroke-dasharray:3.7,1.6;stroke-dashoffset:0;stroke-linecap:round;"/>
   </g>
   <g id="patch_22">
    <path clip-path="url(#pe8a794a1fe)" d="M 250.27651 311.848569 
Q 250.27651 328.224544 250.27651 343.482486 
" style="fill:none;stroke:#0000ff;stroke-dasharray:3.7,1.6;stroke-dashoffset:0;stroke-linecap:round;"/>
    <path clip-path="url(#pe8a794a1fe)" d="M 252.27651 339.482486 
L 250.27651 343.482486 
L 248.27651 339.482486 
L 252.27651 339.482486 
z
" style="fill:#0000ff;stroke:#0000ff;stroke-dasharray:3.7,1.6;stroke-dashoffset:0;stroke-linecap:round;"/>
   </g>
   <g id="patch_23">
    <path clip-path="url(#pe8a794a1fe)" d="M 367.893 111.55766 
Q 367.893 127.933635 367.893 143.191577 
" style="fill:none;stroke:#0000ff;stroke-dasharray:3.7,1.6;stroke-dashoffset:0;stroke-linecap:round;"/>
    <path clip-path="url(#pe8a794a1fe)" d="M 369.893 139.191577 
L 367.893 143.191577 
L 365.893 139.191577 
L 369.893 139.191577 
z
" style="fill:#0000ff;stroke:#0000ff;stroke-dasharray:3.7,1.6;stroke-dashoffset:0;stroke-linecap:round;"/>
   </g>
   <g id="patch_24">
    <path clip-path="url(#pe8a794a1fe)" d="M 367.893 211.703114 
Q 367.893 228.07909 367.893 243.337031 
" style="fill:none;stroke:#0000ff;stroke-dasharray:3.7,1.6;stroke-dashoffset:0;stroke-linecap:round;"/>
    <path clip-path="url(#pe8a794a1fe)" d="M 369.893 239.337031 
L 367.893 243.337031 
L 365.893 239.337031 
L 369.893 239.337031 
z
" style="fill:#0000ff;stroke:#0000ff;stroke-dasharray:3.7,1.6;stroke-dashoffset:0;stroke-linecap:round;"/>
   </g>
   <g id="patch_25">
    <path clip-path="url(#pe8a794a1fe)" d="M 367.893 311.848569 
Q 367.893 328.224544 367.893 343.482486 
" style="fill:none;stroke:#0000ff;stroke-dasharray:3.7,1.6;stroke-dashoffset:0;stroke-linecap:round;"/>
    <path clip-path="url(#pe8a794a1fe)" d="M 369.893 339.482486 
L 367.893 343.482486 
L 365.893 339.482486 
L 369.893 339.482486 
z
" style="fill:#0000ff;stroke:#0000ff;stroke-dasharray:3.7,1.6;stroke-dashoffset:0;stroke-linecap:round;"/>
   </g>
   <g id="patch_26">
    <path clip-path="url(#pe8a794a1fe)" d="M 367.893 411.994024 
Q 367.893 428.369999 367.893 443.62794 
" style="fill:none;stroke:#0000ff;stroke-dasharray:3.7,1.6;stroke-dashoffset:0;stroke-linecap:round;"/>
    <path clip-path="url(#pe8a794a1fe)" d="M 369.893 439.62794 
L 367.893 443.62794 
L 365.893 439.62794 
L 369.893 439.62794 
z
" style="fill:#0000ff;stroke:#0000ff;stroke-dasharray:3.7,1.6;stroke-dashoffset:0;stroke-linecap:round;"/>
   </g>
   <g id="patch_27">
    <path clip-path="url(#pe8a794a1fe)" d="M 485.50949 161.630387 
Q 485.50949 178.006363 485.50949 193.264304 
" style="fill:none;stroke:#0000ff;stroke-dasharray:3.7,1.6;stroke-dashoffset:0;stroke-linecap:round;"/>
    <path clip-path="url(#pe8a794a1fe)" d="M 487.50949 189.264304 
L 485.50949 193.264304 
L 483.50949 189.264304 
L 487.50949 189.264304 
z
" style="fill:#0000ff;stroke:#0000ff;stroke-dasharray:3.7,1.6;stroke-dashoffset:0;stroke-linecap:round;"/>
   </g>
   <g id="patch_28">
    <path clip-path="url(#pe8a794a1fe)" d="M 485.50949 261.775842 
Q 485.50949 278.151817 485.50949 293.409758 
" style="fill:none;stroke:#0000ff;stroke-dasharray:3.7,1.6;stroke-dashoffset:0;stroke-linecap:round;"/>
    <path clip-path="url(#pe8a794a1fe)" d="M 487.50949 289.409758 
L 485.50949 293.409758 
L 483.50949 289.409758 
L 487.50949 289.409758 
z
" style="fill:#0000ff;stroke:#0000ff;stroke-dasharray:3.7,1.6;stroke-dashoffset:0;stroke-linecap:round;"/>
   </g>
   <g id="patch_29">
    <path clip-path="url(#pe8a794a1fe)" d="M 485.50949 361.921296 
Q 485.50949 378.297272 485.50949 393.555213 
" style="fill:none;stroke:#0000ff;stroke-dasharray:3.7,1.6;stroke-dashoffset:0;stroke-linecap:round;"/>
    <path clip-path="url(#pe8a794a1fe)" d="M 487.50949 389.555213 
L 485.50949 393.555213 
L 483.50949 389.555213 
L 487.50949 389.555213 
z
" style="fill:#0000ff;stroke:#0000ff;stroke-dasharray:3.7,1.6;stroke-dashoffset:0;stroke-linecap:round;"/>
   </g>
   <g id="patch_30">
    <path clip-path="url(#pe8a794a1fe)" d="M 255.615698 246.298497 
Q 309.084302 178.009123 361.863655 110.600051 
" style="fill:none;stroke:#000000;stroke-linecap:round;"/>
    <path clip-path="url(#pe8a794a1fe)" d="M 357.822982 112.516547 
L 361.863655 110.600051 
L 360.972448 114.982488 
L 357.822982 112.516547 
z
" style="stroke:#000000;stroke-linecap:round;"/>
   </g>
   <g id="patch_31">
    <path clip-path="url(#pe8a794a1fe)" d="M 258.241323 249.726786 
Q 309.083387 228.081855 358.89676 206.874868 
" style="fill:none;stroke:#000000;stroke-linecap:round;"/>
    <path clip-path="url(#pe8a794a1fe)" d="M 354.432985 206.601523 
L 358.89676 206.874868 
L 355.99982 210.28188 
L 354.432985 206.601523 
z
" style="stroke:#000000;stroke-linecap:round;"/>
   </g>
   <g id="patch_32">
    <path clip-path="url(#pe8a794a1fe)" d="M 258.241323 256.508487 
Q 309.083387 278.153418 358.89676 299.360405 
" style="fill:none;stroke:#000000;stroke-linecap:round;"/>
    <path clip-path="url(#pe8a794a1fe)" d="M 355.99982 295.953392 
L 358.89676 299.360405 
L 354.432985 299.63375 
L 355.99982 295.953392 
z
" style="stroke:#000000;stroke-linecap:round;"/>
   </g>
   <g id="patch_33">
    <path clip-path="url(#pe8a794a1fe)" d="M 255.615698 259.936775 
Q 309.084302 328.22615 361.863655 395.635221 
" style="fill:none;stroke:#000000;stroke-linecap:round;"/>
    <path clip-path="url(#pe8a794a1fe)" d="M 360.972448 391.252785 
L 361.863655 395.635221 
L 357.822982 393.718726 
L 360.972448 391.252785 
z
" style="stroke:#000000;stroke-linecap:round;"/>
   </g>
   <g id="patch_34">
    <path clip-path="url(#pe8a794a1fe)" d="M 253.957409 345.427767 
Q 309.083243 228.08449 363.73369 111.753145 
" style="fill:none;stroke:#000000;stroke-linecap:round;"/>
    <path clip-path="url(#pe8a794a1fe)" d="M 360.222691 114.523143 
L 363.73369 111.753145 
L 363.843089 116.223943 
L 360.222691 114.523143 
z
" style="stroke:#000000;stroke-linecap:round;"/>
   </g>
   <g id="patch_35">
    <path clip-path="url(#pe8a794a1fe)" d="M 255.615698 346.443952 
Q 309.084302 278.154578 361.863655 210.745506 
" style="fill:none;stroke:#000000;stroke-linecap:round;"/>
    <path clip-path="url(#pe8a794a1fe)" d="M 357.822982 212.662002 
L 361.863655 210.745506 
L 360.972448 215.127942 
L 357.822982 212.662002 
z
" style="stroke:#000000;stroke-linecap:round;"/>
   </g>
   <g id="patch_36">
    <path clip-path="url(#pe8a794a1fe)" d="M 258.241323 349.872241 
Q 309.083387 328.22731 358.89676 307.020322 
" style="fill:none;stroke:#000000;stroke-linecap:round;"/>
    <path clip-path="url(#pe8a794a1fe)" d="M 354.432985 306.746978 
L 358.89676 307.020322 
L 355.99982 310.427335 
L 354.432985 306.746978 
z
" style="stroke:#000000;stroke-linecap:round;"/>
   </g>
   <g id="patch_37">
    <path clip-path="url(#pe8a794a1fe)" d="M 258.241323 356.653941 
Q 309.083387 378.298872 358.89676 399.50586 
" style="fill:none;stroke:#000000;stroke-linecap:round;"/>
    <path clip-path="url(#pe8a794a1fe)" d="M 355.99982 396.098847 
L 358.89676 399.50586 
L 354.432985 399.779204 
L 355.99982 396.098847 
z
" style="stroke:#000000;stroke-linecap:round;"/>
   </g>
   <g id="patch_38">
    <path clip-path="url(#pe8a794a1fe)" d="M 376.554151 152.972182 
Q 426.700939 152.972182 475.729693 152.972182 
" style="fill:none;stroke:#000000;stroke-linecap:round;"/>
    <path clip-path="url(#pe8a794a1fe)" d="M 471.729693 150.972182 
L 475.729693 152.972182 
L 471.729693 154.972182 
L 471.729693 150.972182 
z
" style="stroke:#000000;stroke-linecap:round;"/>
   </g>
   <g id="patch_39">
    <path clip-path="url(#pe8a794a1fe)" d="M 374.486673 158.586415 
Q 426.69972 203.043611 478.061506 246.775993 
" style="fill:none;stroke:#000000;stroke-linecap:round;"/>
    <path clip-path="url(#pe8a794a1fe)" d="M 476.312525 242.660041 
L 478.061506 246.775993 
L 473.719355 245.705606 
L 476.312525 242.660041 
z
" style="stroke:#000000;stroke-linecap:round;"/>
   </g>
   <g id="patch_40">
    <path clip-path="url(#pe8a794a1fe)" d="M 372.277416 160.43847 
Q 426.700031 253.115569 480.556502 344.828571 
" style="fill:none;stroke:#000000;stroke-linecap:round;"/>
    <path clip-path="url(#pe8a794a1fe)" d="M 480.255629 340.366568 
L 480.556502 344.828571 
L 476.806375 342.392067 
L 480.255629 340.366568 
z
" style="stroke:#000000;stroke-linecap:round;"/>
   </g>
   <g id="patch_41">
    <path clip-path="url(#pe8a794a1fe)" d="M 374.486673 247.503403 
Q 426.69972 203.046207 478.061506 159.313825 
" style="fill:none;stroke:#000000;stroke-linecap:round;"/>
    <path clip-path="url(#pe8a794a1fe)" d="M 473.719355 160.384212 
L 478.061506 159.313825 
L 476.312525 163.429778 
L 473.719355 160.384212 
z
" style="stroke:#000000;stroke-linecap:round;"/>
   </g>
   <g id="patch_42">
    <path clip-path="url(#pe8a794a1fe)" d="M 376.554151 253.117636 
Q 426.700939 253.117636 475.729693 253.117636 
" style="fill:none;stroke:#000000;stroke-linecap:round;"/>
    <path clip-path="url(#pe8a794a1fe)" d="M 471.729693 251.117636 
L 475.729693 253.117636 
L 471.729693 255.117636 
L 471.729693 251.117636 
z
" style="stroke:#000000;stroke-linecap:round;"/>
   </g>
   <g id="patch_43">
    <path clip-path="url(#pe8a794a1fe)" d="M 374.486673 258.73187 
Q 426.69972 303.189065 478.061506 346.921448 
" style="fill:none;stroke:#000000;stroke-linecap:round;"/>
    <path clip-path="url(#pe8a794a1fe)" d="M 476.312525 342.805495 
L 478.061506 346.921448 
L 473.719355 345.851061 
L 476.312525 342.805495 
z
" style="stroke:#000000;stroke-linecap:round;"/>
   </g>
   <g id="patch_44">
    <path clip-path="url(#pe8a794a1fe)" d="M 372.277416 345.796802 
Q 426.700031 253.119704 480.556502 161.406702 
" style="fill:none;stroke:#000000;stroke-linecap:round;"/>
    <path clip-path="url(#pe8a794a1fe)" d="M 476.806375 163.843206 
L 480.556502 161.406702 
L 480.255629 165.868705 
L 476.806375 163.843206 
z
" style="stroke:#000000;stroke-linecap:round;"/>
   </g>
   <g id="patch_45">
    <path clip-path="url(#pe8a794a1fe)" d="M 374.486673 347.648858 
Q 426.69972 303.191662 478.061506 259.459279 
" style="fill:none;stroke:#000000;stroke-linecap:round;"/>
    <path clip-path="url(#pe8a794a1fe)" d="M 473.719355 260.529667 
L 478.061506 259.459279 
L 476.312525 263.575232 
L 473.719355 260.529667 
z
" style="stroke:#000000;stroke-linecap:round;"/>
   </g>
   <g id="patch_46">
    <path clip-path="url(#pe8a794a1fe)" d="M 376.554151 353.263091 
Q 426.700939 353.263091 475.729693 353.263091 
" style="fill:none;stroke:#000000;stroke-linecap:round;"/>
    <path clip-path="url(#pe8a794a1fe)" d="M 471.729693 351.263091 
L 475.729693 353.263091 
L 471.729693 355.263091 
L 471.729693 351.263091 
z
" style="stroke:#000000;stroke-linecap:round;"/>
   </g>
   <g id="patch_47">
    <path clip-path="url(#pe8a794a1fe)" d="M 371.049851 445.34477 
Q 426.701694 303.189217 481.945963 162.074761 
" style="fill:none;stroke:#000000;stroke-linecap:round;"/>
    <path clip-path="url(#pe8a794a1fe)" d="M 478.625409 165.070411 
L 481.945963 162.074761 
L 482.350151 166.528594 
L 478.625409 165.070411 
z
" style="stroke:#000000;stroke-linecap:round;"/>
   </g>
   <g id="patch_48">
    <path clip-path="url(#pe8a794a1fe)" d="M 372.277416 445.942257 
Q 426.700031 353.265159 480.556502 261.552156 
" style="fill:none;stroke:#000000;stroke-linecap:round;"/>
    <path clip-path="url(#pe8a794a1fe)" d="M 476.806375 263.98866 
L 480.556502 261.552156 
L 480.255629 266.01416 
L 476.806375 263.98866 
z
" style="stroke:#000000;stroke-linecap:round;"/>
   </g>
   <g id="patch_49">
    <path clip-path="url(#pe8a794a1fe)" d="M 374.486673 447.794312 
Q 426.69972 403.337117 478.061506 359.604734 
" style="fill:none;stroke:#000000;stroke-linecap:round;"/>
    <path clip-path="url(#pe8a794a1fe)" d="M 473.719355 360.675121 
L 478.061506 359.604734 
L 476.312525 363.720687 
L 473.719355 360.675121 
z
" style="stroke:#000000;stroke-linecap:round;"/>
   </g>
   <g id="text_1">
    <g id="patch_50">
     <path clip-path="url(#pe8a794a1fe)" d="M 186.723016 258.110274 
L 202.29868 249.468292 
Q 204.397296 248.303899 203.232903 246.205283 
L 199.476522 239.435061 
Q 198.312128 237.336445 196.213512 238.500839 
L 180.637848 247.14282 
Q 178.539232 248.307213 179.703626 250.405829 
L 183.460007 257.176051 
Q 184.6244 259.274667 186.723016 258.110274 
z
" style="fill:#ffffff;stroke:#ffffff;stroke-linejoin:miter;"/>
    </g>
    <g clip-path="url(#pe8a794a1fe)">
     <!-- 0.00 -->
     <g transform="translate(184.751431 254.556836)rotate(-29.023209)scale(0.08 -0.08)">
      <defs>
       <path d="M 2034 4250 
Q 1547 4250 1301 3770 
Q 1056 3291 1056 2328 
Q 1056 1369 1301 889 
Q 1547 409 2034 409 
Q 2525 409 2770 889 
Q 3016 1369 3016 2328 
Q 3016 3291 2770 3770 
Q 2525 4250 2034 4250 
z
M 2034 4750 
Q 2819 4750 3233 4129 
Q 3647 3509 3647 2328 
Q 3647 1150 3233 529 
Q 2819 -91 2034 -91 
Q 1250 -91 836 529 
Q 422 1150 422 2328 
Q 422 3509 836 4129 
Q 1250 4750 2034 4750 
z
" id="DejaVuSans-30" transform="scale(0.015625)"/>
       <path d="M 684 794 
L 1344 794 
L 1344 0 
L 684 0 
L 684 794 
z
" id="DejaVuSans-2e" transform="scale(0.015625)"/>
      </defs>
      <use xlink:href="#DejaVuSans-30"/>
      <use x="63.623047" xlink:href="#DejaVuSans-2e"/>
      <use x="95.410156" xlink:href="#DejaVuSans-30"/>
      <use x="159.033203" xlink:href="#DejaVuSans-30"/>
     </g>
    </g>
   </g>
   <g id="text_2">
    <g id="patch_51">
     <path clip-path="url(#pe8a794a1fe)" d="M 181.570032 300.645546 
L 199.085491 303.884964 
Q 201.445469 304.321433 201.881938 301.961456 
L 203.290005 294.348069 
Q 203.726474 291.988091 201.366497 291.551622 
L 183.851037 288.312204 
Q 181.491059 287.875735 181.05459 290.235713 
L 179.646523 297.849099 
Q 179.210054 300.209077 181.570032 300.645546 
z
" style="fill:#ffffff;stroke:#ffffff;stroke-linejoin:miter;"/>
    </g>
    <g clip-path="url(#pe8a794a1fe)">
     <!-- 0.00 -->
     <g transform="translate(182.309074 296.649563)rotate(-349.52176)scale(0.08 -0.08)">
      <use xlink:href="#DejaVuSans-30"/>
      <use x="63.623047" xlink:href="#DejaVuSans-2e"/>
      <use x="95.410156" xlink:href="#DejaVuSans-30"/>
      <use x="159.033203" xlink:href="#DejaVuSans-30"/>
     </g>
    </g>
   </g>
   <g id="text_3">
    <g id="patch_52">
     <path clip-path="url(#pe8a794a1fe)" d="M 246.207754 208.720415 
L 261.160872 199.041085 
Q 263.175608 197.736923 261.871445 195.722187 
L 257.664163 189.222565 
Q 256.360001 187.207829 254.345265 188.511991 
L 239.392147 198.191321 
Q 237.377411 199.495484 238.681574 201.51022 
L 242.888856 208.009841 
Q 244.193018 210.024577 246.207754 208.720415 
z
" style="fill:#ffffff;stroke:#ffffff;stroke-linejoin:miter;"/>
    </g>
    <g clip-path="url(#pe8a794a1fe)">
     <!-- 6.90 -->
     <g transform="translate(243.999508 205.309005)rotate(-32.91546)scale(0.08 -0.08)">
      <defs>
       <path d="M 2113 2584 
Q 1688 2584 1439 2293 
Q 1191 2003 1191 1497 
Q 1191 994 1439 701 
Q 1688 409 2113 409 
Q 2538 409 2786 701 
Q 3034 994 3034 1497 
Q 3034 2003 2786 2293 
Q 2538 2584 2113 2584 
z
M 3366 4563 
L 3366 3988 
Q 3128 4100 2886 4159 
Q 2644 4219 2406 4219 
Q 1781 4219 1451 3797 
Q 1122 3375 1075 2522 
Q 1259 2794 1537 2939 
Q 1816 3084 2150 3084 
Q 2853 3084 3261 2657 
Q 3669 2231 3669 1497 
Q 3669 778 3244 343 
Q 2819 -91 2113 -91 
Q 1303 -91 875 529 
Q 447 1150 447 2328 
Q 447 3434 972 4092 
Q 1497 4750 2381 4750 
Q 2619 4750 2861 4703 
Q 3103 4656 3366 4563 
z
" id="DejaVuSans-36" transform="scale(0.015625)"/>
       <path d="M 703 97 
L 703 672 
Q 941 559 1184 500 
Q 1428 441 1663 441 
Q 2288 441 2617 861 
Q 2947 1281 2994 2138 
Q 2813 1869 2534 1725 
Q 2256 1581 1919 1581 
Q 1219 1581 811 2004 
Q 403 2428 403 3163 
Q 403 3881 828 4315 
Q 1253 4750 1959 4750 
Q 2769 4750 3195 4129 
Q 3622 3509 3622 2328 
Q 3622 1225 3098 567 
Q 2575 -91 1691 -91 
Q 1453 -91 1209 -44 
Q 966 3 703 97 
z
M 1959 2075 
Q 2384 2075 2632 2365 
Q 2881 2656 2881 3163 
Q 2881 3666 2632 3958 
Q 2384 4250 1959 4250 
Q 1534 4250 1286 3958 
Q 1038 3666 1038 3163 
Q 1038 2656 1286 2365 
Q 1534 2075 1959 2075 
z
" id="DejaVuSans-39" transform="scale(0.015625)"/>
      </defs>
      <use xlink:href="#DejaVuSans-36"/>
      <use x="63.623047" xlink:href="#DejaVuSans-2e"/>
      <use x="95.410156" xlink:href="#DejaVuSans-39"/>
      <use x="159.033203" xlink:href="#DejaVuSans-30"/>
     </g>
    </g>
   </g>
   <g id="text_4">
    <g id="patch_53">
     <path clip-path="url(#pe8a794a1fe)" d="M 243.370836 255.134532 
L 260.535084 250.372838 
Q 262.847741 249.731262 262.206165 247.418605 
L 260.136415 239.957879 
Q 259.49484 237.645222 257.182183 238.286798 
L 240.017935 243.048493 
Q 237.705278 243.690068 238.346854 246.002725 
L 240.416604 253.463452 
Q 241.058179 255.776108 243.370836 255.134532 
z
" style="fill:#ffffff;stroke:#ffffff;stroke-linejoin:miter;"/>
    </g>
    <g clip-path="url(#pe8a794a1fe)">
     <!-- 6.90 -->
     <g transform="translate(242.284501 251.218675)rotate(-15.505044)scale(0.08 -0.08)">
      <use xlink:href="#DejaVuSans-36"/>
      <use x="63.623047" xlink:href="#DejaVuSans-2e"/>
      <use x="95.410156" xlink:href="#DejaVuSans-39"/>
      <use x="159.033203" xlink:href="#DejaVuSans-30"/>
     </g>
    </g>
   </g>
   <g id="text_5">
    <g id="patch_54">
     <path clip-path="url(#pe8a794a1fe)" d="M 240.830639 300.771592 
L 258.567464 302.411772 
Q 260.957268 302.632764 261.17826 300.242961 
L 261.891192 292.533354 
Q 262.112184 290.14355 259.72238 289.922558 
L 241.985555 288.282378 
Q 239.595751 288.061385 239.374759 290.451189 
L 238.661827 298.160796 
Q 238.440835 300.5506 240.830639 300.771592 
z
" style="fill:#ffffff;stroke:#ffffff;stroke-linejoin:miter;"/>
    </g>
    <g clip-path="url(#pe8a794a1fe)">
     <!-- 6.90 -->
     <g transform="translate(241.20483 296.725107)rotate(-354.716706)scale(0.08 -0.08)">
      <use xlink:href="#DejaVuSans-36"/>
      <use x="63.623047" xlink:href="#DejaVuSans-2e"/>
      <use x="95.410156" xlink:href="#DejaVuSans-39"/>
      <use x="159.033203" xlink:href="#DejaVuSans-30"/>
     </g>
    </g>
   </g>
   <g id="text_6">
    <g id="patch_55">
     <path clip-path="url(#pe8a794a1fe)" d="M 239.560643 349.950988 
L 255.728577 357.426484 
Q 257.906994 358.433709 258.914219 356.255293 
L 262.163568 349.227631 
Q 263.170793 347.049214 260.992376 346.041989 
L 244.824442 338.566493 
Q 242.646025 337.559268 241.6388 339.737684 
L 238.389451 346.765346 
Q 237.382226 348.943763 239.560643 349.950988 
z
" style="fill:#ffffff;stroke:#ffffff;stroke-linejoin:miter;"/>
    </g>
    <g clip-path="url(#pe8a794a1fe)">
     <!-- 6.90 -->
     <g transform="translate(241.266105 346.262429)rotate(-335.185803)scale(0.08 -0.08)">
      <use xlink:href="#DejaVuSans-36"/>
      <use x="63.623047" xlink:href="#DejaVuSans-2e"/>
      <use x="95.410156" xlink:href="#DejaVuSans-39"/>
      <use x="159.033203" xlink:href="#DejaVuSans-30"/>
     </g>
    </g>
   </g>
   <g id="text_7">
    <g id="patch_56">
     <path clip-path="url(#pe8a794a1fe)" d="M 302.420973 230.502554 
L 319.443146 225.255576 
Q 321.73666 224.548615 321.029698 222.255101 
L 318.749012 214.85613 
Q 318.042051 212.562616 315.748537 213.269577 
L 298.726364 218.516555 
Q 296.43285 219.223516 297.139811 221.51703 
L 299.420498 228.916001 
Q 300.127459 231.209515 302.420973 230.502554 
z
" style="fill:#ffffff;stroke:#ffffff;stroke-linejoin:miter;"/>
    </g>
    <g clip-path="url(#pe8a794a1fe)">
     <!-- 6.90 -->
     <g transform="translate(301.223925 226.61911)rotate(-17.131586)scale(0.08 -0.08)">
      <use xlink:href="#DejaVuSans-36"/>
      <use x="63.623047" xlink:href="#DejaVuSans-2e"/>
      <use x="95.410156" xlink:href="#DejaVuSans-39"/>
      <use x="159.033203" xlink:href="#DejaVuSans-30"/>
     </g>
    </g>
   </g>
   <g id="text_8">
    <g id="patch_57">
     <path clip-path="url(#pe8a794a1fe)" d="M 300.581263 276.855137 
L 318.360011 275.759099 
Q 320.755463 275.611423 320.607786 273.21597 
L 320.131375 265.488142 
Q 319.983699 263.092689 317.588246 263.240366 
L 299.809499 264.336403 
Q 297.414047 264.48408 297.561723 266.879532 
L 298.038134 274.607361 
Q 298.185811 277.002813 300.581263 276.855137 
z
" style="fill:#ffffff;stroke:#ffffff;stroke-linejoin:miter;"/>
    </g>
    <g clip-path="url(#pe8a794a1fe)">
     <!-- 6.90 -->
     <g transform="translate(300.331213 272.799087)rotate(-3.527748)scale(0.08 -0.08)">
      <use xlink:href="#DejaVuSans-36"/>
      <use x="63.623047" xlink:href="#DejaVuSans-2e"/>
      <use x="95.410156" xlink:href="#DejaVuSans-39"/>
      <use x="159.033203" xlink:href="#DejaVuSans-30"/>
     </g>
    </g>
   </g>
   <g id="text_9">
    <g id="patch_58">
     <path clip-path="url(#pe8a794a1fe)" d="M 299.186522 325.68191 
L 316.701982 328.921328 
Q 319.06196 329.357797 319.498429 326.997819 
L 320.906496 319.384433 
Q 321.342965 317.024455 318.982987 316.587986 
L 301.467528 313.348568 
Q 299.10755 312.912099 298.671081 315.272076 
L 297.263014 322.885463 
Q 296.826545 325.245441 299.186522 325.68191 
z
" style="fill:#ffffff;stroke:#ffffff;stroke-linejoin:miter;"/>
    </g>
    <g clip-path="url(#pe8a794a1fe)">
     <!-- 6.90 -->
     <g transform="translate(299.925564 321.685927)rotate(-349.52176)scale(0.08 -0.08)">
      <use xlink:href="#DejaVuSans-36"/>
      <use x="63.623047" xlink:href="#DejaVuSans-2e"/>
      <use x="95.410156" xlink:href="#DejaVuSans-39"/>
      <use x="159.033203" xlink:href="#DejaVuSans-30"/>
     </g>
    </g>
   </g>
   <g id="text_10">
    <g id="patch_59">
     <path clip-path="url(#pe8a794a1fe)" d="M 244.00526 228.081273 
L 244.00526 248.780023 
Q 244.00526 251.180023 246.40526 251.180023 
L 254.14776 251.180023 
Q 256.54776 251.180023 256.54776 248.780023 
L 256.54776 228.081273 
Q 256.54776 225.681273 254.14776 225.681273 
L 246.40526 225.681273 
Q 244.00526 225.681273 244.00526 228.081273 
z
" style="fill:#ffffff;stroke:#ffffff;stroke-linejoin:miter;"/>
    </g>
    <g clip-path="url(#pe8a794a1fe)">
     <!-- -2.94 -->
     <g transform="translate(248.06901 228.081273)rotate(-270)scale(0.08 -0.08)">
      <defs>
       <path d="M 313 2009 
L 1997 2009 
L 1997 1497 
L 313 1497 
L 313 2009 
z
" id="DejaVuSans-2d" transform="scale(0.015625)"/>
       <path d="M 1228 531 
L 3431 531 
L 3431 0 
L 469 0 
L 469 531 
Q 828 903 1448 1529 
Q 2069 2156 2228 2338 
Q 2531 2678 2651 2914 
Q 2772 3150 2772 3378 
Q 2772 3750 2511 3984 
Q 2250 4219 1831 4219 
Q 1534 4219 1204 4116 
Q 875 4013 500 3803 
L 500 4441 
Q 881 4594 1212 4672 
Q 1544 4750 1819 4750 
Q 2544 4750 2975 4387 
Q 3406 4025 3406 3419 
Q 3406 3131 3298 2873 
Q 3191 2616 2906 2266 
Q 2828 2175 2409 1742 
Q 1991 1309 1228 531 
z
" id="DejaVuSans-32" transform="scale(0.015625)"/>
       <path d="M 2419 4116 
L 825 1625 
L 2419 1625 
L 2419 4116 
z
M 2253 4666 
L 3047 4666 
L 3047 1625 
L 3713 1625 
L 3713 1100 
L 3047 1100 
L 3047 0 
L 2419 0 
L 2419 1100 
L 313 1100 
L 313 1709 
L 2253 4666 
z
" id="DejaVuSans-34" transform="scale(0.015625)"/>
      </defs>
      <use xlink:href="#DejaVuSans-2d"/>
      <use x="36.083984" xlink:href="#DejaVuSans-32"/>
      <use x="99.707031" xlink:href="#DejaVuSans-2e"/>
      <use x="131.494141" xlink:href="#DejaVuSans-39"/>
      <use x="195.117188" xlink:href="#DejaVuSans-34"/>
     </g>
    </g>
   </g>
   <g id="text_11">
    <g id="patch_60">
     <path clip-path="url(#pe8a794a1fe)" d="M 417.425989 275.759099 
L 435.204737 276.855137 
Q 437.600189 277.002813 437.747866 274.607361 
L 438.224277 266.879532 
Q 438.371953 264.48408 435.976501 264.336403 
L 418.197754 263.240366 
Q 415.802301 263.092689 415.654625 265.488142 
L 415.178214 273.21597 
Q 415.030537 275.611423 417.425989 275.759099 
z
" style="fill:#ffffff;stroke:#ffffff;stroke-linejoin:miter;"/>
    </g>
    <g clip-path="url(#pe8a794a1fe)">
     <!-- 6.90 -->
     <g transform="translate(417.67604 271.70305)rotate(-356.472252)scale(0.08 -0.08)">
      <use xlink:href="#DejaVuSans-36"/>
      <use x="63.623047" xlink:href="#DejaVuSans-2e"/>
      <use x="95.410156" xlink:href="#DejaVuSans-39"/>
      <use x="159.033203" xlink:href="#DejaVuSans-30"/>
     </g>
    </g>
   </g>
   <g id="text_12">
    <g id="patch_61">
     <path clip-path="url(#pe8a794a1fe)" d="M 307.781227 198.030633 
L 319.70566 184.798359 
Q 321.31232 183.015484 319.529446 181.408824 
L 313.777817 176.225671 
Q 311.994943 174.61901 310.388282 176.401885 
L 298.46385 189.634159 
Q 296.857189 191.417033 298.640064 193.023694 
L 304.391692 198.206847 
Q 306.174567 199.813508 307.781227 198.030633 
z
" style="fill:#ffffff;stroke:#ffffff;stroke-linejoin:miter;"/>
    </g>
    <g clip-path="url(#pe8a794a1fe)">
     <!-- 0.94 -->
     <g transform="translate(304.762412 195.310189)rotate(-47.976)scale(0.08 -0.08)">
      <use xlink:href="#DejaVuSans-30"/>
      <use x="63.623047" xlink:href="#DejaVuSans-2e"/>
      <use x="95.410156" xlink:href="#DejaVuSans-39"/>
      <use x="159.033203" xlink:href="#DejaVuSans-34"/>
     </g>
    </g>
   </g>
   <g id="text_13">
    <g id="patch_62">
     <path clip-path="url(#pe8a794a1fe)" d="M 302.907254 243.773385 
L 319.613502 237.593869 
Q 321.864449 236.761261 321.031841 234.510314 
L 318.345812 227.248664 
Q 317.513203 224.997717 315.262256 225.830326 
L 298.556007 232.009841 
Q 296.30506 232.84245 297.137669 235.093397 
L 299.823698 242.355046 
Q 300.656306 244.605993 302.907254 243.773385 
z
" style="fill:#ffffff;stroke:#ffffff;stroke-linejoin:miter;"/>
    </g>
    <g clip-path="url(#pe8a794a1fe)">
     <!-- 0.22 -->
     <g transform="translate(301.497457 239.962016)rotate(-20.299055)scale(0.08 -0.08)">
      <use xlink:href="#DejaVuSans-30"/>
      <use x="63.623047" xlink:href="#DejaVuSans-2e"/>
      <use x="95.410156" xlink:href="#DejaVuSans-32"/>
      <use x="159.033203" xlink:href="#DejaVuSans-32"/>
     </g>
    </g>
   </g>
   <g id="text_14">
    <g id="patch_63">
     <path clip-path="url(#pe8a794a1fe)" d="M 298.556007 287.666597 
L 315.262256 293.846112 
Q 317.513203 294.678721 318.345812 292.427773 
L 321.031841 285.166124 
Q 321.864449 282.915177 319.613502 282.082568 
L 302.907254 275.903053 
Q 300.656306 275.070444 299.823698 277.321392 
L 297.137669 284.583041 
Q 296.30506 286.833988 298.556007 287.666597 
z
" style="fill:#ffffff;stroke:#ffffff;stroke-linejoin:miter;"/>
    </g>
    <g clip-path="url(#pe8a794a1fe)">
     <!-- 0.54 -->
     <g transform="translate(299.965804 283.855227)rotate(-339.700945)scale(0.08 -0.08)">
      <defs>
       <path d="M 691 4666 
L 3169 4666 
L 3169 4134 
L 1269 4134 
L 1269 2991 
Q 1406 3038 1543 3061 
Q 1681 3084 1819 3084 
Q 2600 3084 3056 2656 
Q 3513 2228 3513 1497 
Q 3513 744 3044 326 
Q 2575 -91 1722 -91 
Q 1428 -91 1123 -41 
Q 819 9 494 109 
L 494 744 
Q 775 591 1075 516 
Q 1375 441 1709 441 
Q 2250 441 2565 725 
Q 2881 1009 2881 1497 
Q 2881 1984 2565 2268 
Q 2250 2553 1709 2553 
Q 1456 2553 1204 2497 
Q 953 2441 691 2322 
L 691 4666 
z
" id="DejaVuSans-35" transform="scale(0.015625)"/>
      </defs>
      <use xlink:href="#DejaVuSans-30"/>
      <use x="63.623047" xlink:href="#DejaVuSans-2e"/>
      <use x="95.410156" xlink:href="#DejaVuSans-35"/>
      <use x="159.033203" xlink:href="#DejaVuSans-34"/>
     </g>
    </g>
   </g>
   <g id="text_15">
    <g id="patch_64">
     <path clip-path="url(#pe8a794a1fe)" d="M 298.46385 335.016541 
L 310.388282 348.248815 
Q 311.994943 350.031689 313.777817 348.425029 
L 319.529446 343.241876 
Q 321.31232 341.635215 319.70566 339.85234 
L 307.781227 326.620067 
Q 306.174567 324.837192 304.391692 326.443853 
L 298.640064 331.627006 
Q 296.857189 333.233666 298.46385 335.016541 
z
" style="fill:#ffffff;stroke:#ffffff;stroke-linejoin:miter;"/>
    </g>
    <g clip-path="url(#pe8a794a1fe)">
     <!-- 2.22 -->
     <g transform="translate(301.482665 332.296097)rotate(-312.024)scale(0.08 -0.08)">
      <use xlink:href="#DejaVuSans-32"/>
      <use x="63.623047" xlink:href="#DejaVuSans-2e"/>
      <use x="95.410156" xlink:href="#DejaVuSans-32"/>
      <use x="159.033203" xlink:href="#DejaVuSans-32"/>
     </g>
    </g>
   </g>
   <g id="text_16">
    <g id="patch_65">
     <path clip-path="url(#pe8a794a1fe)" d="M 244.00526 328.226727 
L 244.00526 348.925477 
Q 244.00526 351.325477 246.40526 351.325477 
L 254.14776 351.325477 
Q 256.54776 351.325477 256.54776 348.925477 
L 256.54776 328.226727 
Q 256.54776 325.826727 254.14776 325.826727 
L 246.40526 325.826727 
Q 244.00526 325.826727 244.00526 328.226727 
z
" style="fill:#ffffff;stroke:#ffffff;stroke-linejoin:miter;"/>
    </g>
    <g clip-path="url(#pe8a794a1fe)">
     <!-- -2.94 -->
     <g transform="translate(248.06901 328.226727)rotate(-270)scale(0.08 -0.08)">
      <use xlink:href="#DejaVuSans-2d"/>
      <use x="36.083984" xlink:href="#DejaVuSans-32"/>
      <use x="99.707031" xlink:href="#DejaVuSans-2e"/>
      <use x="131.494141" xlink:href="#DejaVuSans-39"/>
      <use x="195.117188" xlink:href="#DejaVuSans-34"/>
     </g>
    </g>
   </g>
   <g id="text_17">
    <g id="patch_66">
     <path clip-path="url(#pe8a794a1fe)" d="M 419.084018 328.921328 
L 436.599478 325.68191 
Q 438.959455 325.245441 438.522986 322.885463 
L 437.114919 315.272076 
Q 436.67845 312.912099 434.318472 313.348568 
L 416.803013 316.587986 
Q 414.443035 317.024455 414.879504 319.384433 
L 416.287571 326.997819 
Q 416.72404 329.357797 419.084018 328.921328 
z
" style="fill:#ffffff;stroke:#ffffff;stroke-linejoin:miter;"/>
    </g>
    <g clip-path="url(#pe8a794a1fe)">
     <!-- 6.90 -->
     <g transform="translate(418.344976 324.925345)rotate(-10.47824)scale(0.08 -0.08)">
      <use xlink:href="#DejaVuSans-36"/>
      <use x="63.623047" xlink:href="#DejaVuSans-2e"/>
      <use x="95.410156" xlink:href="#DejaVuSans-39"/>
      <use x="159.033203" xlink:href="#DejaVuSans-30"/>
     </g>
    </g>
   </g>
   <g id="text_18">
    <g id="patch_67">
     <path clip-path="url(#pe8a794a1fe)" d="M 310.365225 248.574031 
L 318.837278 232.905289 
Q 319.978775 230.794132 317.867619 229.652635 
L 311.056939 225.970116 
Q 308.945782 224.828618 307.804284 226.939775 
L 299.332232 242.608517 
Q 298.190734 244.719674 300.301891 245.861172 
L 307.112571 249.543691 
Q 309.223728 250.685188 310.365225 248.574031 
z
" style="fill:#ffffff;stroke:#ffffff;stroke-linejoin:miter;"/>
    </g>
    <g clip-path="url(#pe8a794a1fe)">
     <!-- 5.34 -->
     <g transform="translate(306.790553 246.641214)rotate(-61.600014)scale(0.08 -0.08)">
      <defs>
       <path d="M 2597 2516 
Q 3050 2419 3304 2112 
Q 3559 1806 3559 1356 
Q 3559 666 3084 287 
Q 2609 -91 1734 -91 
Q 1441 -91 1130 -33 
Q 819 25 488 141 
L 488 750 
Q 750 597 1062 519 
Q 1375 441 1716 441 
Q 2309 441 2620 675 
Q 2931 909 2931 1356 
Q 2931 1769 2642 2001 
Q 2353 2234 1838 2234 
L 1294 2234 
L 1294 2753 
L 1863 2753 
Q 2328 2753 2575 2939 
Q 2822 3125 2822 3475 
Q 2822 3834 2567 4026 
Q 2313 4219 1838 4219 
Q 1578 4219 1281 4162 
Q 984 4106 628 3988 
L 628 4550 
Q 988 4650 1302 4700 
Q 1616 4750 1894 4750 
Q 2613 4750 3031 4423 
Q 3450 4097 3450 3541 
Q 3450 3153 3228 2886 
Q 3006 2619 2597 2516 
z
" id="DejaVuSans-33" transform="scale(0.015625)"/>
      </defs>
      <use xlink:href="#DejaVuSans-35"/>
      <use x="63.623047" xlink:href="#DejaVuSans-2e"/>
      <use x="95.410156" xlink:href="#DejaVuSans-33"/>
      <use x="159.033203" xlink:href="#DejaVuSans-34"/>
     </g>
    </g>
   </g>
   <g id="text_19">
    <g id="patch_68">
     <path clip-path="url(#pe8a794a1fe)" d="M 307.781227 298.176087 
L 319.70566 284.943814 
Q 321.31232 283.160939 319.529446 281.554279 
L 313.777817 276.371125 
Q 311.994943 274.764465 310.388282 276.54734 
L 298.46385 289.779613 
Q 296.857189 291.562488 298.640064 293.169148 
L 304.391692 298.352302 
Q 306.174567 299.958962 307.781227 298.176087 
z
" style="fill:#ffffff;stroke:#ffffff;stroke-linejoin:miter;"/>
    </g>
    <g clip-path="url(#pe8a794a1fe)">
     <!-- 2.22 -->
     <g transform="translate(304.762412 295.455643)rotate(-47.976)scale(0.08 -0.08)">
      <use xlink:href="#DejaVuSans-32"/>
      <use x="63.623047" xlink:href="#DejaVuSans-2e"/>
      <use x="95.410156" xlink:href="#DejaVuSans-32"/>
      <use x="159.033203" xlink:href="#DejaVuSans-32"/>
     </g>
    </g>
   </g>
   <g id="text_20">
    <g id="patch_69">
     <path clip-path="url(#pe8a794a1fe)" d="M 302.907254 343.918839 
L 319.613502 337.739324 
Q 321.864449 336.906715 321.031841 334.655768 
L 318.345812 327.394119 
Q 317.513203 325.143172 315.262256 325.97578 
L 298.556007 332.155296 
Q 296.30506 332.987904 297.137669 335.238851 
L 299.823698 342.500501 
Q 300.656306 344.751448 302.907254 343.918839 
z
" style="fill:#ffffff;stroke:#ffffff;stroke-linejoin:miter;"/>
    </g>
    <g clip-path="url(#pe8a794a1fe)">
     <!-- 0.94 -->
     <g transform="translate(301.497457 340.10747)rotate(-20.299055)scale(0.08 -0.08)">
      <use xlink:href="#DejaVuSans-30"/>
      <use x="63.623047" xlink:href="#DejaVuSans-2e"/>
      <use x="95.410156" xlink:href="#DejaVuSans-39"/>
      <use x="159.033203" xlink:href="#DejaVuSans-34"/>
     </g>
    </g>
   </g>
   <g id="text_21">
    <g id="patch_70">
     <path clip-path="url(#pe8a794a1fe)" d="M 298.556007 387.812051 
L 315.262256 393.991567 
Q 317.513203 394.824175 318.345812 392.573228 
L 321.031841 385.311579 
Q 321.864449 383.060631 319.613502 382.228023 
L 302.907254 376.048507 
Q 300.656306 375.215899 299.823698 377.466846 
L 297.137669 384.728496 
Q 296.30506 386.979443 298.556007 387.812051 
z
" style="fill:#ffffff;stroke:#ffffff;stroke-linejoin:miter;"/>
    </g>
    <g clip-path="url(#pe8a794a1fe)">
     <!-- 0.22 -->
     <g transform="translate(299.965804 384.000682)rotate(-339.700945)scale(0.08 -0.08)">
      <use xlink:href="#DejaVuSans-30"/>
      <use x="63.623047" xlink:href="#DejaVuSans-2e"/>
      <use x="95.410156" xlink:href="#DejaVuSans-32"/>
      <use x="159.033203" xlink:href="#DejaVuSans-32"/>
     </g>
    </g>
   </g>
   <g id="text_22">
    <g id="patch_71">
     <path clip-path="url(#pe8a794a1fe)" d="M 361.62175 127.935818 
L 361.62175 148.634568 
Q 361.62175 151.034568 364.02175 151.034568 
L 371.76425 151.034568 
Q 374.16425 151.034568 374.16425 148.634568 
L 374.16425 127.935818 
Q 374.16425 125.535818 371.76425 125.535818 
L 364.02175 125.535818 
Q 361.62175 125.535818 361.62175 127.935818 
z
" style="fill:#ffffff;stroke:#ffffff;stroke-linejoin:miter;"/>
    </g>
    <g clip-path="url(#pe8a794a1fe)">
     <!-- -2.94 -->
     <g transform="translate(365.6855 127.935818)rotate(-270)scale(0.08 -0.08)">
      <use xlink:href="#DejaVuSans-2d"/>
      <use x="36.083984" xlink:href="#DejaVuSans-32"/>
      <use x="99.707031" xlink:href="#DejaVuSans-2e"/>
      <use x="131.494141" xlink:href="#DejaVuSans-39"/>
      <use x="195.117188" xlink:href="#DejaVuSans-34"/>
     </g>
    </g>
   </g>
   <g id="text_23">
    <g id="patch_72">
     <path clip-path="url(#pe8a794a1fe)" d="M 474.793624 224.76917 
L 490.961558 232.244666 
Q 493.139975 233.251891 494.1472 231.073475 
L 497.396549 224.045812 
Q 498.403774 221.867396 496.225357 220.860171 
L 480.057423 213.384674 
Q 477.879006 212.37745 476.871781 214.555866 
L 473.622432 221.583528 
Q 472.615207 223.761945 474.793624 224.76917 
z
" style="fill:#ffffff;stroke:#ffffff;stroke-linejoin:miter;"/>
    </g>
    <g clip-path="url(#pe8a794a1fe)">
     <!-- 6.90 -->
     <g transform="translate(476.499086 221.080611)rotate(-335.185803)scale(0.08 -0.08)">
      <use xlink:href="#DejaVuSans-36"/>
      <use x="63.623047" xlink:href="#DejaVuSans-2e"/>
      <use x="95.410156" xlink:href="#DejaVuSans-39"/>
      <use x="159.033203" xlink:href="#DejaVuSans-30"/>
     </g>
    </g>
   </g>
   <g id="text_24">
    <g id="patch_73">
     <path clip-path="url(#pe8a794a1fe)" d="M 417.794995 163.114682 
L 435.607495 163.114682 
Q 438.007495 163.114682 438.007495 160.714682 
L 438.007495 152.972182 
Q 438.007495 150.572182 435.607495 150.572182 
L 417.794995 150.572182 
Q 415.394995 150.572182 415.394995 152.972182 
L 415.394995 160.714682 
Q 415.394995 163.114682 417.794995 163.114682 
z
" style="fill:#ffffff;stroke:#ffffff;stroke-linejoin:miter;"/>
    </g>
    <g clip-path="url(#pe8a794a1fe)">
     <!-- 0.94 -->
     <g transform="translate(417.794995 159.050932)scale(0.08 -0.08)">
      <use xlink:href="#DejaVuSans-30"/>
      <use x="63.623047" xlink:href="#DejaVuSans-2e"/>
      <use x="95.410156" xlink:href="#DejaVuSans-39"/>
      <use x="159.033203" xlink:href="#DejaVuSans-34"/>
     </g>
    </g>
   </g>
   <g id="text_25">
    <g id="patch_74">
     <path clip-path="url(#pe8a794a1fe)" d="M 415.811584 211.198714 
L 430.13149 221.792365 
Q 432.060909 223.21972 433.488264 221.290301 
L 438.092971 215.065915 
Q 439.520326 213.136496 437.590907 211.709141 
L 423.271001 201.11549 
Q 421.341582 199.688135 419.914227 201.617554 
L 415.30952 207.84194 
Q 413.882165 209.771359 415.811584 211.198714 
z
" style="fill:#ffffff;stroke:#ffffff;stroke-linejoin:miter;"/>
    </g>
    <g clip-path="url(#pe8a794a1fe)">
     <!-- 2.22 -->
     <g transform="translate(418.228423 207.931766)rotate(-323.506521)scale(0.08 -0.08)">
      <use xlink:href="#DejaVuSans-32"/>
      <use x="63.623047" xlink:href="#DejaVuSans-2e"/>
      <use x="95.410156" xlink:href="#DejaVuSans-32"/>
      <use x="159.033203" xlink:href="#DejaVuSans-32"/>
     </g>
    </g>
   </g>
   <g id="text_26">
    <g id="patch_75">
     <path clip-path="url(#pe8a794a1fe)" d="M 416.518205 258.797123 
L 426.492655 273.555019 
Q 427.836581 275.543452 429.825013 274.199526 
L 436.239779 269.863965 
Q 438.228211 268.520039 436.884285 266.531607 
L 426.909835 251.77371 
Q 425.565909 249.785278 423.577477 251.129204 
L 417.162711 255.464765 
Q 415.174279 256.808691 416.518205 258.797123 
z
" style="fill:#ffffff;stroke:#ffffff;stroke-linejoin:miter;"/>
    </g>
    <g clip-path="url(#pe8a794a1fe)">
     <!-- 5.34 -->
     <g transform="translate(419.885077 256.521549)rotate(-304.053663)scale(0.08 -0.08)">
      <use xlink:href="#DejaVuSans-35"/>
      <use x="63.623047" xlink:href="#DejaVuSans-2e"/>
      <use x="95.410156" xlink:href="#DejaVuSans-33"/>
      <use x="159.033203" xlink:href="#DejaVuSans-34"/>
     </g>
    </g>
   </g>
   <g id="text_27">
    <g id="patch_76">
     <path clip-path="url(#pe8a794a1fe)" d="M 361.62175 228.081273 
L 361.62175 248.780023 
Q 361.62175 251.180023 364.02175 251.180023 
L 371.76425 251.180023 
Q 374.16425 251.180023 374.16425 248.780023 
L 374.16425 228.081273 
Q 374.16425 225.681273 371.76425 225.681273 
L 364.02175 225.681273 
Q 361.62175 225.681273 361.62175 228.081273 
z
" style="fill:#ffffff;stroke:#ffffff;stroke-linejoin:miter;"/>
    </g>
    <g clip-path="url(#pe8a794a1fe)">
     <!-- -2.94 -->
     <g transform="translate(365.6855 228.081273)rotate(-270)scale(0.08 -0.08)">
      <use xlink:href="#DejaVuSans-2d"/>
      <use x="36.083984" xlink:href="#DejaVuSans-32"/>
      <use x="99.707031" xlink:href="#DejaVuSans-2e"/>
      <use x="131.494141" xlink:href="#DejaVuSans-39"/>
      <use x="195.117188" xlink:href="#DejaVuSans-34"/>
     </g>
    </g>
   </g>
   <g id="text_28">
    <g id="patch_77">
     <path clip-path="url(#pe8a794a1fe)" d="M 476.06362 275.735229 
L 493.800445 277.375408 
Q 496.190249 277.596401 496.411241 275.206597 
L 497.124173 267.49699 
Q 497.345165 265.107187 494.955361 264.886194 
L 477.218536 263.246014 
Q 474.828732 263.025022 474.60774 265.414826 
L 473.894808 273.124432 
Q 473.673816 275.514236 476.06362 275.735229 
z
" style="fill:#ffffff;stroke:#ffffff;stroke-linejoin:miter;"/>
    </g>
    <g clip-path="url(#pe8a794a1fe)">
     <!-- 6.90 -->
     <g transform="translate(476.437811 271.688743)rotate(-354.716706)scale(0.08 -0.08)">
      <use xlink:href="#DejaVuSans-36"/>
      <use x="63.623047" xlink:href="#DejaVuSans-2e"/>
      <use x="95.410156" xlink:href="#DejaVuSans-39"/>
      <use x="159.033203" xlink:href="#DejaVuSans-30"/>
     </g>
    </g>
   </g>
   <g id="text_29">
    <g id="patch_78">
     <path clip-path="url(#pe8a794a1fe)" d="M 423.271001 221.792365 
L 437.590907 211.198714 
Q 439.520326 209.771359 438.092971 207.84194 
L 433.488264 201.617554 
Q 432.060909 199.688135 430.13149 201.11549 
L 415.811584 211.709141 
Q 413.882165 213.136496 415.30952 215.065915 
L 419.914227 221.290301 
Q 421.341582 223.21972 423.271001 221.792365 
z
" style="fill:#ffffff;stroke:#ffffff;stroke-linejoin:miter;"/>
    </g>
    <g clip-path="url(#pe8a794a1fe)">
     <!-- 0.22 -->
     <g transform="translate(420.854161 218.525417)rotate(-36.493479)scale(0.08 -0.08)">
      <use xlink:href="#DejaVuSans-30"/>
      <use x="63.623047" xlink:href="#DejaVuSans-2e"/>
      <use x="95.410156" xlink:href="#DejaVuSans-32"/>
      <use x="159.033203" xlink:href="#DejaVuSans-32"/>
     </g>
    </g>
   </g>
   <g id="text_30">
    <g id="patch_79">
     <path clip-path="url(#pe8a794a1fe)" d="M 417.794995 263.260136 
L 435.607495 263.260136 
Q 438.007495 263.260136 438.007495 260.860136 
L 438.007495 253.117636 
Q 438.007495 250.717636 435.607495 250.717636 
L 417.794995 250.717636 
Q 415.394995 250.717636 415.394995 253.117636 
L 415.394995 260.860136 
Q 415.394995 263.260136 417.794995 263.260136 
z
" style="fill:#ffffff;stroke:#ffffff;stroke-linejoin:miter;"/>
    </g>
    <g clip-path="url(#pe8a794a1fe)">
     <!-- 0.54 -->
     <g transform="translate(417.794995 259.196386)scale(0.08 -0.08)">
      <use xlink:href="#DejaVuSans-30"/>
      <use x="63.623047" xlink:href="#DejaVuSans-2e"/>
      <use x="95.410156" xlink:href="#DejaVuSans-35"/>
      <use x="159.033203" xlink:href="#DejaVuSans-34"/>
     </g>
    </g>
   </g>
   <g id="text_31">
    <g id="patch_80">
     <path clip-path="url(#pe8a794a1fe)" d="M 415.811584 311.344168 
L 430.13149 321.93782 
Q 432.060909 323.365175 433.488264 321.435756 
L 438.092971 315.21137 
Q 439.520326 313.281951 437.590907 311.854596 
L 423.271001 301.260945 
Q 421.341582 299.83359 419.914227 301.763009 
L 415.30952 307.987394 
Q 413.882165 309.916813 415.811584 311.344168 
z
" style="fill:#ffffff;stroke:#ffffff;stroke-linejoin:miter;"/>
    </g>
    <g clip-path="url(#pe8a794a1fe)">
     <!-- 2.22 -->
     <g transform="translate(418.228423 308.07722)rotate(-323.506521)scale(0.08 -0.08)">
      <use xlink:href="#DejaVuSans-32"/>
      <use x="63.623047" xlink:href="#DejaVuSans-2e"/>
      <use x="95.410156" xlink:href="#DejaVuSans-32"/>
      <use x="159.033203" xlink:href="#DejaVuSans-32"/>
     </g>
    </g>
   </g>
   <g id="text_32">
    <g id="patch_81">
     <path clip-path="url(#pe8a794a1fe)" d="M 361.62175 328.226727 
L 361.62175 348.925477 
Q 361.62175 351.325477 364.02175 351.325477 
L 371.76425 351.325477 
Q 374.16425 351.325477 374.16425 348.925477 
L 374.16425 328.226727 
Q 374.16425 325.826727 371.76425 325.826727 
L 364.02175 325.826727 
Q 361.62175 325.826727 361.62175 328.226727 
z
" style="fill:#ffffff;stroke:#ffffff;stroke-linejoin:miter;"/>
    </g>
    <g clip-path="url(#pe8a794a1fe)">
     <!-- -2.94 -->
     <g transform="translate(365.6855 328.226727)rotate(-270)scale(0.08 -0.08)">
      <use xlink:href="#DejaVuSans-2d"/>
      <use x="36.083984" xlink:href="#DejaVuSans-32"/>
      <use x="99.707031" xlink:href="#DejaVuSans-2e"/>
      <use x="131.494141" xlink:href="#DejaVuSans-39"/>
      <use x="195.117188" xlink:href="#DejaVuSans-34"/>
     </g>
    </g>
   </g>
   <g id="text_33">
    <g id="patch_82">
     <path clip-path="url(#pe8a794a1fe)" d="M 478.603817 330.243623 
L 495.768065 325.481929 
Q 498.080722 324.840353 497.439146 322.527696 
L 495.369396 315.06697 
Q 494.727821 312.754313 492.415164 313.395889 
L 475.250916 318.157584 
Q 472.938259 318.799159 473.579835 321.111816 
L 475.649585 328.572542 
Q 476.29116 330.885199 478.603817 330.243623 
z
" style="fill:#ffffff;stroke:#ffffff;stroke-linejoin:miter;"/>
    </g>
    <g clip-path="url(#pe8a794a1fe)">
     <!-- 6.90 -->
     <g transform="translate(477.517482 326.327766)rotate(-15.505044)scale(0.08 -0.08)">
      <use xlink:href="#DejaVuSans-36"/>
      <use x="63.623047" xlink:href="#DejaVuSans-2e"/>
      <use x="95.410156" xlink:href="#DejaVuSans-39"/>
      <use x="159.033203" xlink:href="#DejaVuSans-30"/>
     </g>
    </g>
   </g>
   <g id="text_34">
    <g id="patch_83">
     <path clip-path="url(#pe8a794a1fe)" d="M 426.909835 273.555019 
L 436.884285 258.797123 
Q 438.228211 256.808691 436.239779 255.464765 
L 429.825013 251.129204 
Q 427.836581 249.785278 426.492655 251.77371 
L 416.518205 266.531607 
Q 415.174279 268.520039 417.162711 269.863965 
L 423.577477 274.199526 
Q 425.565909 275.543452 426.909835 273.555019 
z
" style="fill:#ffffff;stroke:#ffffff;stroke-linejoin:miter;"/>
    </g>
    <g clip-path="url(#pe8a794a1fe)">
     <!-- 0.54 -->
     <g transform="translate(423.542964 271.279445)rotate(-55.946337)scale(0.08 -0.08)">
      <use xlink:href="#DejaVuSans-30"/>
      <use x="63.623047" xlink:href="#DejaVuSans-2e"/>
      <use x="95.410156" xlink:href="#DejaVuSans-35"/>
      <use x="159.033203" xlink:href="#DejaVuSans-34"/>
     </g>
    </g>
   </g>
   <g id="text_35">
    <g id="patch_84">
     <path clip-path="url(#pe8a794a1fe)" d="M 423.271001 321.93782 
L 437.590907 311.344168 
Q 439.520326 309.916813 438.092971 307.987394 
L 433.488264 301.763009 
Q 432.060909 299.83359 430.13149 301.260945 
L 415.811584 311.854596 
Q 413.882165 313.281951 415.30952 315.21137 
L 419.914227 321.435756 
Q 421.341582 323.365175 423.271001 321.93782 
z
" style="fill:#ffffff;stroke:#ffffff;stroke-linejoin:miter;"/>
    </g>
    <g clip-path="url(#pe8a794a1fe)">
     <!-- 0.22 -->
     <g transform="translate(420.854161 318.670871)rotate(-36.493479)scale(0.08 -0.08)">
      <use xlink:href="#DejaVuSans-30"/>
      <use x="63.623047" xlink:href="#DejaVuSans-2e"/>
      <use x="95.410156" xlink:href="#DejaVuSans-32"/>
      <use x="159.033203" xlink:href="#DejaVuSans-32"/>
     </g>
    </g>
   </g>
   <g id="text_36">
    <g id="patch_85">
     <path clip-path="url(#pe8a794a1fe)" d="M 417.794995 363.405591 
L 435.607495 363.405591 
Q 438.007495 363.405591 438.007495 361.005591 
L 438.007495 353.263091 
Q 438.007495 350.863091 435.607495 350.863091 
L 417.794995 350.863091 
Q 415.394995 350.863091 415.394995 353.263091 
L 415.394995 361.005591 
Q 415.394995 363.405591 417.794995 363.405591 
z
" style="fill:#ffffff;stroke:#ffffff;stroke-linejoin:miter;"/>
    </g>
    <g clip-path="url(#pe8a794a1fe)">
     <!-- 0.94 -->
     <g transform="translate(417.794995 359.341841)scale(0.08 -0.08)">
      <use xlink:href="#DejaVuSans-30"/>
      <use x="63.623047" xlink:href="#DejaVuSans-2e"/>
      <use x="95.410156" xlink:href="#DejaVuSans-39"/>
      <use x="159.033203" xlink:href="#DejaVuSans-34"/>
     </g>
    </g>
   </g>
   <g id="text_37">
    <g id="patch_86">
     <path clip-path="url(#pe8a794a1fe)" d="M 361.62175 428.372182 
L 361.62175 449.070932 
Q 361.62175 451.470932 364.02175 451.470932 
L 371.76425 451.470932 
Q 374.16425 451.470932 374.16425 449.070932 
L 374.16425 428.372182 
Q 374.16425 425.972182 371.76425 425.972182 
L 364.02175 425.972182 
Q 361.62175 425.972182 361.62175 428.372182 
z
" style="fill:#ffffff;stroke:#ffffff;stroke-linejoin:miter;"/>
    </g>
    <g clip-path="url(#pe8a794a1fe)">
     <!-- -2.94 -->
     <g transform="translate(365.6855 428.372182)rotate(-270)scale(0.08 -0.08)">
      <use xlink:href="#DejaVuSans-2d"/>
      <use x="36.083984" xlink:href="#DejaVuSans-32"/>
      <use x="99.707031" xlink:href="#DejaVuSans-2e"/>
      <use x="131.494141" xlink:href="#DejaVuSans-39"/>
      <use x="195.117188" xlink:href="#DejaVuSans-34"/>
     </g>
    </g>
   </g>
   <g id="text_38">
    <g id="patch_87">
     <path clip-path="url(#pe8a794a1fe)" d="M 481.440735 383.97496 
L 496.393853 374.29563 
Q 498.408589 372.991468 497.104426 370.976732 
L 492.897144 364.47711 
Q 491.592982 362.462375 489.578246 363.766537 
L 474.625128 373.445867 
Q 472.610392 374.750029 473.914555 376.764765 
L 478.121837 383.264387 
Q 479.425999 385.279123 481.440735 383.97496 
z
" style="fill:#ffffff;stroke:#ffffff;stroke-linejoin:miter;"/>
    </g>
    <g clip-path="url(#pe8a794a1fe)">
     <!-- 6.90 -->
     <g transform="translate(479.232489 380.563551)rotate(-32.91546)scale(0.08 -0.08)">
      <use xlink:href="#DejaVuSans-36"/>
      <use x="63.623047" xlink:href="#DejaVuSans-2e"/>
      <use x="95.410156" xlink:href="#DejaVuSans-39"/>
      <use x="159.033203" xlink:href="#DejaVuSans-30"/>
     </g>
    </g>
   </g>
   <g id="text_39">
    <g id="patch_88">
     <path clip-path="url(#pe8a794a1fe)" d="M 428.760152 323.597024 
L 436.077624 307.356958 
Q 437.063557 305.168823 434.875422 304.182889 
L 427.816406 301.002228 
Q 425.628271 300.016295 424.642338 302.204431 
L 417.324866 318.444497 
Q 416.338933 320.632632 418.527068 321.618565 
L 425.586084 324.799227 
Q 427.774219 325.78516 428.760152 323.597024 
z
" style="fill:#ffffff;stroke:#ffffff;stroke-linejoin:miter;"/>
    </g>
    <g clip-path="url(#pe8a794a1fe)">
     <!-- 2.22 -->
     <g transform="translate(425.055138 321.927614)rotate(-65.744559)scale(0.08 -0.08)">
      <use xlink:href="#DejaVuSans-32"/>
      <use x="63.623047" xlink:href="#DejaVuSans-2e"/>
      <use x="95.410156" xlink:href="#DejaVuSans-32"/>
      <use x="159.033203" xlink:href="#DejaVuSans-32"/>
     </g>
    </g>
   </g>
   <g id="text_40">
    <g id="patch_89">
     <path clip-path="url(#pe8a794a1fe)" d="M 426.909835 373.700474 
L 436.884285 358.942578 
Q 438.228211 356.954146 436.239779 355.61022 
L 429.825013 351.274659 
Q 427.836581 349.930733 426.492655 351.919165 
L 416.518205 366.677061 
Q 415.174279 368.665494 417.162711 370.009419 
L 423.577477 374.34498 
Q 425.565909 375.688906 426.909835 373.700474 
z
" style="fill:#ffffff;stroke:#ffffff;stroke-linejoin:miter;"/>
    </g>
    <g clip-path="url(#pe8a794a1fe)">
     <!-- 0.94 -->
     <g transform="translate(423.542964 371.424899)rotate(-55.946337)scale(0.08 -0.08)">
      <use xlink:href="#DejaVuSans-30"/>
      <use x="63.623047" xlink:href="#DejaVuSans-2e"/>
      <use x="95.410156" xlink:href="#DejaVuSans-39"/>
      <use x="159.033203" xlink:href="#DejaVuSans-34"/>
     </g>
    </g>
   </g>
   <g id="text_41">
    <g id="patch_90">
     <path clip-path="url(#pe8a794a1fe)" d="M 423.271001 422.083274 
L 437.590907 411.489623 
Q 439.520326 410.062268 438.092971 408.132849 
L 433.488264 401.908463 
Q 432.060909 399.979044 430.13149 401.406399 
L 415.811584 412.00005 
Q 413.882165 413.427405 415.30952 415.356824 
L 419.914227 421.58121 
Q 421.341582 423.510629 423.271001 422.083274 
z
" style="fill:#ffffff;stroke:#ffffff;stroke-linejoin:miter;"/>
    </g>
    <g clip-path="url(#pe8a794a1fe)">
     <!-- 0.22 -->
     <g transform="translate(420.854161 418.816326)rotate(-36.493479)scale(0.08 -0.08)">
      <use xlink:href="#DejaVuSans-30"/>
      <use x="63.623047" xlink:href="#DejaVuSans-2e"/>
      <use x="95.410156" xlink:href="#DejaVuSans-32"/>
      <use x="159.033203" xlink:href="#DejaVuSans-32"/>
     </g>
    </g>
   </g>
   <g id="text_42">
    <g id="patch_91">
     <path clip-path="url(#pe8a794a1fe)" d="M 479.23824 178.008545 
L 479.23824 198.707295 
Q 479.23824 201.107295 481.63824 201.107295 
L 489.38074 201.107295 
Q 491.78074 201.107295 491.78074 198.707295 
L 491.78074 178.008545 
Q 491.78074 175.608545 489.38074 175.608545 
L 481.63824 175.608545 
Q 479.23824 175.608545 479.23824 178.008545 
z
" style="fill:#ffffff;stroke:#ffffff;stroke-linejoin:miter;"/>
    </g>
    <g clip-path="url(#pe8a794a1fe)">
     <!-- -2.94 -->
     <g transform="translate(483.30199 178.008545)rotate(-270)scale(0.08 -0.08)">
      <use xlink:href="#DejaVuSans-2d"/>
      <use x="36.083984" xlink:href="#DejaVuSans-32"/>
      <use x="99.707031" xlink:href="#DejaVuSans-2e"/>
      <use x="131.494141" xlink:href="#DejaVuSans-39"/>
      <use x="195.117188" xlink:href="#DejaVuSans-34"/>
     </g>
    </g>
   </g>
   <g id="text_43">
    <g id="patch_92">
     <path clip-path="url(#pe8a794a1fe)" d="M 533.48732 249.468292 
L 549.062984 258.110274 
Q 551.1616 259.274667 552.325993 257.176051 
L 556.082374 250.405829 
Q 557.246768 248.307213 555.148152 247.14282 
L 539.572488 238.500839 
Q 537.473872 237.336445 536.309478 239.435061 
L 532.553097 246.205283 
Q 531.388704 248.303899 533.48732 249.468292 
z
" style="fill:#ffffff;stroke:#ffffff;stroke-linejoin:miter;"/>
    </g>
    <g clip-path="url(#pe8a794a1fe)">
     <!-- 0.00 -->
     <g transform="translate(535.458904 245.914855)rotate(-330.976791)scale(0.08 -0.08)">
      <use xlink:href="#DejaVuSans-30"/>
      <use x="63.623047" xlink:href="#DejaVuSans-2e"/>
      <use x="95.410156" xlink:href="#DejaVuSans-30"/>
      <use x="159.033203" xlink:href="#DejaVuSans-30"/>
     </g>
    </g>
   </g>
   <g id="text_44">
    <g id="patch_93">
     <path clip-path="url(#pe8a794a1fe)" d="M 479.23824 278.154 
L 479.23824 298.85275 
Q 479.23824 301.25275 481.63824 301.25275 
L 489.38074 301.25275 
Q 491.78074 301.25275 491.78074 298.85275 
L 491.78074 278.154 
Q 491.78074 275.754 489.38074 275.754 
L 481.63824 275.754 
Q 479.23824 275.754 479.23824 278.154 
z
" style="fill:#ffffff;stroke:#ffffff;stroke-linejoin:miter;"/>
    </g>
    <g clip-path="url(#pe8a794a1fe)">
     <!-- -2.94 -->
     <g transform="translate(483.30199 278.154)rotate(-270)scale(0.08 -0.08)">
      <use xlink:href="#DejaVuSans-2d"/>
      <use x="36.083984" xlink:href="#DejaVuSans-32"/>
      <use x="99.707031" xlink:href="#DejaVuSans-2e"/>
      <use x="131.494141" xlink:href="#DejaVuSans-39"/>
      <use x="195.117188" xlink:href="#DejaVuSans-34"/>
     </g>
    </g>
   </g>
   <g id="text_45">
    <g id="patch_94">
     <path clip-path="url(#pe8a794a1fe)" d="M 536.700509 303.884964 
L 554.215968 300.645546 
Q 556.575946 300.209077 556.139477 297.849099 
L 554.73141 290.235713 
Q 554.294941 287.875735 551.934963 288.312204 
L 534.419503 291.551622 
Q 532.059526 291.988091 532.495995 294.348069 
L 533.904062 301.961456 
Q 534.340531 304.321433 536.700509 303.884964 
z
" style="fill:#ffffff;stroke:#ffffff;stroke-linejoin:miter;"/>
    </g>
    <g clip-path="url(#pe8a794a1fe)">
     <!-- 0.00 -->
     <g transform="translate(535.961466 299.888981)rotate(-10.47824)scale(0.08 -0.08)">
      <use xlink:href="#DejaVuSans-30"/>
      <use x="63.623047" xlink:href="#DejaVuSans-2e"/>
      <use x="95.410156" xlink:href="#DejaVuSans-30"/>
      <use x="159.033203" xlink:href="#DejaVuSans-30"/>
     </g>
    </g>
   </g>
   <g id="text_46">
    <g id="patch_95">
     <path clip-path="url(#pe8a794a1fe)" d="M 479.23824 378.299455 
L 479.23824 398.998205 
Q 479.23824 401.398205 481.63824 401.398205 
L 489.38074 401.398205 
Q 491.78074 401.398205 491.78074 398.998205 
L 491.78074 378.299455 
Q 491.78074 375.899455 489.38074 375.899455 
L 481.63824 375.899455 
Q 479.23824 375.899455 479.23824 378.299455 
z
" style="fill:#ffffff;stroke:#ffffff;stroke-linejoin:miter;"/>
    </g>
    <g clip-path="url(#pe8a794a1fe)">
     <!-- -2.94 -->
     <g transform="translate(483.30199 378.299455)rotate(-270)scale(0.08 -0.08)">
      <use xlink:href="#DejaVuSans-2d"/>
      <use x="36.083984" xlink:href="#DejaVuSans-32"/>
      <use x="99.707031" xlink:href="#DejaVuSans-2e"/>
      <use x="131.494141" xlink:href="#DejaVuSans-39"/>
      <use x="195.117188" xlink:href="#DejaVuSans-34"/>
     </g>
    </g>
   </g>
   <g id="text_47">
    <g id="patch_96">
     <path clip-path="url(#pe8a794a1fe)" d="M 542.036561 360.285051 
L 555.11446 348.19151 
Q 556.876535 346.562065 555.247089 344.79999 
L 549.99043 339.115464 
Q 548.360985 337.353389 546.59891 338.982834 
L 533.521011 351.076375 
Q 531.758937 352.70582 533.388382 354.467895 
L 538.645041 360.152422 
Q 540.274487 361.914497 542.036561 360.285051 
z
" style="fill:#ffffff;stroke:#ffffff;stroke-linejoin:miter;"/>
    </g>
    <g clip-path="url(#pe8a794a1fe)">
     <!-- 0.00 -->
     <g transform="translate(539.277537 357.301455)rotate(-42.760524)scale(0.08 -0.08)">
      <use xlink:href="#DejaVuSans-30"/>
      <use x="63.623047" xlink:href="#DejaVuSans-2e"/>
      <use x="95.410156" xlink:href="#DejaVuSans-30"/>
      <use x="159.033203" xlink:href="#DejaVuSans-30"/>
     </g>
    </g>
   </g>
   <g id="matplotlib.axis_1">
    <g id="xtick_1"/>
    <g id="xtick_2"/>
    <g id="xtick_3"/>
    <g id="xtick_4"/>
    <g id="xtick_5"/>
    <g id="xtick_6"/>
    <g id="xtick_7"/>
   </g>
   <g id="matplotlib.axis_2">
    <g id="ytick_1"/>
    <g id="ytick_2"/>
    <g id="ytick_3"/>
    <g id="ytick_4"/>
    <g id="ytick_5"/>
   </g>
   <g id="PathCollection_1">
    <defs>
     <path d="M 0 12.247449 
C 3.248061 12.247449 6.363528 10.95698 8.660254 8.660254 
C 10.95698 6.363528 12.247449 3.248061 12.247449 0 
C 12.247449 -3.248061 10.95698 -6.363528 8.660254 -8.660254 
C 6.363528 -10.95698 3.248061 -12.247449 0 -12.247449 
C -3.248061 -12.247449 -6.363528 -10.95698 -8.660254 -8.660254 
C -10.95698 -6.363528 -12.247449 -3.248061 -12.247449 0 
C -12.247449 3.248061 -10.95698 6.363528 -8.660254 8.660254 
C -6.363528 10.95698 -3.248061 12.247449 0 12.247449 
z
" id="m8ee62eca1f" style="stroke:#000000;"/>
    </defs>
    <g clip-path="url(#pe8a794a1fe)">
     <use style="fill:#ffffff;stroke:#000000;" x="132.660019" xlink:href="#m8ee62eca1f" y="278.154"/>
     <use style="fill:#ffffff;stroke:#000000;" x="603.125981" xlink:href="#m8ee62eca1f" y="278.154"/>
     <use style="fill:#ffffff;stroke:#000000;" x="250.27651" xlink:href="#m8ee62eca1f" y="203.044909"/>
     <use style="fill:#ffffff;stroke:#000000;" x="250.27651" xlink:href="#m8ee62eca1f" y="253.117636"/>
     <use style="fill:#ffffff;stroke:#000000;" x="250.27651" xlink:href="#m8ee62eca1f" y="303.190364"/>
     <use style="fill:#ffffff;stroke:#000000;" x="250.27651" xlink:href="#m8ee62eca1f" y="353.263091"/>
     <use style="fill:#ffffff;stroke:#000000;" x="367.893" xlink:href="#m8ee62eca1f" y="102.899455"/>
     <use style="fill:#ffffff;stroke:#000000;" x="367.893" xlink:href="#m8ee62eca1f" y="152.972182"/>
     <use style="fill:#ffffff;stroke:#000000;" x="367.893" xlink:href="#m8ee62eca1f" y="203.044909"/>
     <use style="fill:#ffffff;stroke:#000000;" x="367.893" xlink:href="#m8ee62eca1f" y="253.117636"/>
     <use style="fill:#ffffff;stroke:#000000;" x="367.893" xlink:href="#m8ee62eca1f" y="303.190364"/>
     <use style="fill:#ffffff;stroke:#000000;" x="367.893" xlink:href="#m8ee62eca1f" y="353.263091"/>
     <use style="fill:#ffffff;stroke:#000000;" x="367.893" xlink:href="#m8ee62eca1f" y="403.335818"/>
     <use style="fill:#ffffff;stroke:#000000;" x="367.893" xlink:href="#m8ee62eca1f" y="453.408545"/>
     <use style="fill:#ffffff;stroke:#000000;" x="485.50949" xlink:href="#m8ee62eca1f" y="152.972182"/>
     <use style="fill:#ffffff;stroke:#000000;" x="485.50949" xlink:href="#m8ee62eca1f" y="203.044909"/>
     <use style="fill:#ffffff;stroke:#000000;" x="485.50949" xlink:href="#m8ee62eca1f" y="253.117636"/>
     <use style="fill:#ffffff;stroke:#000000;" x="485.50949" xlink:href="#m8ee62eca1f" y="303.190364"/>
     <use style="fill:#ffffff;stroke:#000000;" x="485.50949" xlink:href="#m8ee62eca1f" y="353.263091"/>
     <use style="fill:#ffffff;stroke:#000000;" x="485.50949" xlink:href="#m8ee62eca1f" y="403.335818"/>
    </g>
   </g>
   <g id="patch_97">
    <path d="M 89.73 490.212 
L 89.73 66.096 
" style="fill:none;stroke:#000000;stroke-linecap:square;stroke-linejoin:miter;stroke-width:0.8;"/>
   </g>
   <g id="patch_98">
    <path d="M 646.056 490.212 
L 646.056 66.096 
" style="fill:none;stroke:#000000;stroke-linecap:square;stroke-linejoin:miter;stroke-width:0.8;"/>
   </g>
   <g id="patch_99">
    <path d="M 89.73 490.212 
L 646.056 490.212 
" style="fill:none;stroke:#000000;stroke-linecap:square;stroke-linejoin:miter;stroke-width:0.8;"/>
   </g>
   <g id="patch_100">
    <path d="M 89.73 66.096 
L 646.056 66.096 
" style="fill:none;stroke:#000000;stroke-linecap:square;stroke-linejoin:miter;stroke-width:0.8;"/>
   </g>
   <g id="text_48">
    <g clip-path="url(#pe8a794a1fe)">
     <!-- S -->
     <g transform="translate(130.120644 280.3615)scale(0.08 -0.08)">
      <defs>
       <path d="M 3425 4513 
L 3425 3897 
Q 3066 4069 2747 4153 
Q 2428 4238 2131 4238 
Q 1616 4238 1336 4038 
Q 1056 3838 1056 3469 
Q 1056 3159 1242 3001 
Q 1428 2844 1947 2747 
L 2328 2669 
Q 3034 2534 3370 2195 
Q 3706 1856 3706 1288 
Q 3706 609 3251 259 
Q 2797 -91 1919 -91 
Q 1588 -91 1214 -16 
Q 841 59 441 206 
L 441 856 
Q 825 641 1194 531 
Q 1563 422 1919 422 
Q 2459 422 2753 634 
Q 3047 847 3047 1241 
Q 3047 1584 2836 1778 
Q 2625 1972 2144 2069 
L 1759 2144 
Q 1053 2284 737 2584 
Q 422 2884 422 3419 
Q 422 4038 858 4394 
Q 1294 4750 2059 4750 
Q 2388 4750 2728 4690 
Q 3069 4631 3425 4513 
z
" id="DejaVuSans-53" transform="scale(0.015625)"/>
      </defs>
      <use xlink:href="#DejaVuSans-53"/>
     </g>
    </g>
   </g>
   <g id="text_49">
    <g clip-path="url(#pe8a794a1fe)">
     <!-- T -->
     <g transform="translate(600.682856 280.3615)scale(0.08 -0.08)">
      <defs>
       <path d="M -19 4666 
L 3928 4666 
L 3928 4134 
L 2272 4134 
L 2272 0 
L 1638 0 
L 1638 4134 
L -19 4134 
L -19 4666 
z
" id="DejaVuSans-54" transform="scale(0.015625)"/>
      </defs>
      <use xlink:href="#DejaVuSans-54"/>
     </g>
    </g>
   </g>
   <g id="text_50">
    <g clip-path="url(#pe8a794a1fe)">
     <!-- (0,0,u) -->
     <g transform="translate(236.98776 205.252409)scale(0.08 -0.08)">
      <defs>
       <path d="M 1984 4856 
Q 1566 4138 1362 3434 
Q 1159 2731 1159 2009 
Q 1159 1288 1364 580 
Q 1569 -128 1984 -844 
L 1484 -844 
Q 1016 -109 783 600 
Q 550 1309 550 2009 
Q 550 2706 781 3412 
Q 1013 4119 1484 4856 
L 1984 4856 
z
" id="DejaVuSans-28" transform="scale(0.015625)"/>
       <path d="M 750 794 
L 1409 794 
L 1409 256 
L 897 -744 
L 494 -744 
L 750 256 
L 750 794 
z
" id="DejaVuSans-2c" transform="scale(0.015625)"/>
       <path d="M 544 1381 
L 544 3500 
L 1119 3500 
L 1119 1403 
Q 1119 906 1312 657 
Q 1506 409 1894 409 
Q 2359 409 2629 706 
Q 2900 1003 2900 1516 
L 2900 3500 
L 3475 3500 
L 3475 0 
L 2900 0 
L 2900 538 
Q 2691 219 2414 64 
Q 2138 -91 1772 -91 
Q 1169 -91 856 284 
Q 544 659 544 1381 
z
M 1991 3584 
L 1991 3584 
z
" id="DejaVuSans-75" transform="scale(0.015625)"/>
       <path d="M 513 4856 
L 1013 4856 
Q 1481 4119 1714 3412 
Q 1947 2706 1947 2009 
Q 1947 1309 1714 600 
Q 1481 -109 1013 -844 
L 513 -844 
Q 928 -128 1133 580 
Q 1338 1288 1338 2009 
Q 1338 2731 1133 3434 
Q 928 4138 513 4856 
z
" id="DejaVuSans-29" transform="scale(0.015625)"/>
      </defs>
      <use xlink:href="#DejaVuSans-28"/>
      <use x="39.013672" xlink:href="#DejaVuSans-30"/>
      <use x="102.636719" xlink:href="#DejaVuSans-2c"/>
      <use x="134.423828" xlink:href="#DejaVuSans-30"/>
      <use x="198.046875" xlink:href="#DejaVuSans-2c"/>
      <use x="229.833984" xlink:href="#DejaVuSans-75"/>
      <use x="293.212891" xlink:href="#DejaVuSans-29"/>
     </g>
    </g>
   </g>
   <g id="text_51">
    <g clip-path="url(#pe8a794a1fe)">
     <!-- (0,0,v) -->
     <g transform="translate(237.15526 255.325136)scale(0.08 -0.08)">
      <defs>
       <path d="M 191 3500 
L 800 3500 
L 1894 563 
L 2988 3500 
L 3597 3500 
L 2284 0 
L 1503 0 
L 191 3500 
z
" id="DejaVuSans-76" transform="scale(0.015625)"/>
      </defs>
      <use xlink:href="#DejaVuSans-28"/>
      <use x="39.013672" xlink:href="#DejaVuSans-30"/>
      <use x="102.636719" xlink:href="#DejaVuSans-2c"/>
      <use x="134.423828" xlink:href="#DejaVuSans-30"/>
      <use x="198.046875" xlink:href="#DejaVuSans-2c"/>
      <use x="229.833984" xlink:href="#DejaVuSans-76"/>
      <use x="289.013672" xlink:href="#DejaVuSans-29"/>
     </g>
    </g>
   </g>
   <g id="text_52">
    <g clip-path="url(#pe8a794a1fe)">
     <!-- (0,1,u) -->
     <g transform="translate(236.98776 305.397864)scale(0.08 -0.08)">
      <defs>
       <path d="M 794 531 
L 1825 531 
L 1825 4091 
L 703 3866 
L 703 4441 
L 1819 4666 
L 2450 4666 
L 2450 531 
L 3481 531 
L 3481 0 
L 794 0 
L 794 531 
z
" id="DejaVuSans-31" transform="scale(0.015625)"/>
      </defs>
      <use xlink:href="#DejaVuSans-28"/>
      <use x="39.013672" xlink:href="#DejaVuSans-30"/>
      <use x="102.636719" xlink:href="#DejaVuSans-2c"/>
      <use x="134.423828" xlink:href="#DejaVuSans-31"/>
      <use x="198.046875" xlink:href="#DejaVuSans-2c"/>
      <use x="229.833984" xlink:href="#DejaVuSans-75"/>
      <use x="293.212891" xlink:href="#DejaVuSans-29"/>
     </g>
    </g>
   </g>
   <g id="text_53">
    <g clip-path="url(#pe8a794a1fe)">
     <!-- (0,1,v) -->
     <g transform="translate(237.15526 355.470591)scale(0.08 -0.08)">
      <use xlink:href="#DejaVuSans-28"/>
      <use x="39.013672" xlink:href="#DejaVuSans-30"/>
      <use x="102.636719" xlink:href="#DejaVuSans-2c"/>
      <use x="134.423828" xlink:href="#DejaVuSans-31"/>
      <use x="198.046875" xlink:href="#DejaVuSans-2c"/>
      <use x="229.833984" xlink:href="#DejaVuSans-76"/>
      <use x="289.013672" xlink:href="#DejaVuSans-29"/>
     </g>
    </g>
   </g>
   <g id="text_54">
    <g clip-path="url(#pe8a794a1fe)">
     <!-- (1,0,u) -->
     <g transform="translate(354.60425 105.106955)scale(0.08 -0.08)">
      <use xlink:href="#DejaVuSans-28"/>
      <use x="39.013672" xlink:href="#DejaVuSans-31"/>
      <use x="102.636719" xlink:href="#DejaVuSans-2c"/>
      <use x="134.423828" xlink:href="#DejaVuSans-30"/>
      <use x="198.046875" xlink:href="#DejaVuSans-2c"/>
      <use x="229.833984" xlink:href="#DejaVuSans-75"/>
      <use x="293.212891" xlink:href="#DejaVuSans-29"/>
     </g>
    </g>
   </g>
   <g id="text_55">
    <g clip-path="url(#pe8a794a1fe)">
     <!-- (1,0,v) -->
     <g transform="translate(354.77175 155.179682)scale(0.08 -0.08)">
      <use xlink:href="#DejaVuSans-28"/>
      <use x="39.013672" xlink:href="#DejaVuSans-31"/>
      <use x="102.636719" xlink:href="#DejaVuSans-2c"/>
      <use x="134.423828" xlink:href="#DejaVuSans-30"/>
      <use x="198.046875" xlink:href="#DejaVuSans-2c"/>
      <use x="229.833984" xlink:href="#DejaVuSans-76"/>
      <use x="289.013672" xlink:href="#DejaVuSans-29"/>
     </g>
    </g>
   </g>
   <g id="text_56">
    <g clip-path="url(#pe8a794a1fe)">
     <!-- (1,1,u) -->
     <g transform="translate(354.60425 205.252409)scale(0.08 -0.08)">
      <use xlink:href="#DejaVuSans-28"/>
      <use x="39.013672" xlink:href="#DejaVuSans-31"/>
      <use x="102.636719" xlink:href="#DejaVuSans-2c"/>
      <use x="134.423828" xlink:href="#DejaVuSans-31"/>
      <use x="198.046875" xlink:href="#DejaVuSans-2c"/>
      <use x="229.833984" xlink:href="#DejaVuSans-75"/>
      <use x="293.212891" xlink:href="#DejaVuSans-29"/>
     </g>
    </g>
   </g>
   <g id="text_57">
    <g clip-path="url(#pe8a794a1fe)">
     <!-- (1,1,v) -->
     <g transform="translate(354.77175 255.325136)scale(0.08 -0.08)">
      <use xlink:href="#DejaVuSans-28"/>
      <use x="39.013672" xlink:href="#DejaVuSans-31"/>
      <use x="102.636719" xlink:href="#DejaVuSans-2c"/>
      <use x="134.423828" xlink:href="#DejaVuSans-31"/>
      <use x="198.046875" xlink:href="#DejaVuSans-2c"/>
      <use x="229.833984" xlink:href="#DejaVuSans-76"/>
      <use x="289.013672" xlink:href="#DejaVuSans-29"/>
     </g>
    </g>
   </g>
   <g id="text_58">
    <g clip-path="url(#pe8a794a1fe)">
     <!-- (1,2,u) -->
     <g transform="translate(354.60425 305.397864)scale(0.08 -0.08)">
      <use xlink:href="#DejaVuSans-28"/>
      <use x="39.013672" xlink:href="#DejaVuSans-31"/>
      <use x="102.636719" xlink:href="#DejaVuSans-2c"/>
      <use x="134.423828" xlink:href="#DejaVuSans-32"/>
      <use x="198.046875" xlink:href="#DejaVuSans-2c"/>
      <use x="229.833984" xlink:href="#DejaVuSans-75"/>
      <use x="293.212891" xlink:href="#DejaVuSans-29"/>
     </g>
    </g>
   </g>
   <g id="text_59">
    <g clip-path="url(#pe8a794a1fe)">
     <!-- (1,2,v) -->
     <g transform="translate(354.77175 355.470591)scale(0.08 -0.08)">
      <use xlink:href="#DejaVuSans-28"/>
      <use x="39.013672" xlink:href="#DejaVuSans-31"/>
      <use x="102.636719" xlink:href="#DejaVuSans-2c"/>
      <use x="134.423828" xlink:href="#DejaVuSans-32"/>
      <use x="198.046875" xlink:href="#DejaVuSans-2c"/>
      <use x="229.833984" xlink:href="#DejaVuSans-76"/>
      <use x="289.013672" xlink:href="#DejaVuSans-29"/>
     </g>
    </g>
   </g>
   <g id="text_60">
    <g clip-path="url(#pe8a794a1fe)">
     <!-- (1,3,u) -->
     <g transform="translate(354.60425 405.543318)scale(0.08 -0.08)">
      <use xlink:href="#DejaVuSans-28"/>
      <use x="39.013672" xlink:href="#DejaVuSans-31"/>
      <use x="102.636719" xlink:href="#DejaVuSans-2c"/>
      <use x="134.423828" xlink:href="#DejaVuSans-33"/>
      <use x="198.046875" xlink:href="#DejaVuSans-2c"/>
      <use x="229.833984" xlink:href="#DejaVuSans-75"/>
      <use x="293.212891" xlink:href="#DejaVuSans-29"/>
     </g>
    </g>
   </g>
   <g id="text_61">
    <g clip-path="url(#pe8a794a1fe)">
     <!-- (1,3,v) -->
     <g transform="translate(354.77175 455.616045)scale(0.08 -0.08)">
      <use xlink:href="#DejaVuSans-28"/>
      <use x="39.013672" xlink:href="#DejaVuSans-31"/>
      <use x="102.636719" xlink:href="#DejaVuSans-2c"/>
      <use x="134.423828" xlink:href="#DejaVuSans-33"/>
      <use x="198.046875" xlink:href="#DejaVuSans-2c"/>
      <use x="229.833984" xlink:href="#DejaVuSans-76"/>
      <use x="289.013672" xlink:href="#DejaVuSans-29"/>
     </g>
    </g>
   </g>
   <g id="text_62">
    <g clip-path="url(#pe8a794a1fe)">
     <!-- (2,0,u) -->
     <g transform="translate(472.22074 155.179682)scale(0.08 -0.08)">
      <use xlink:href="#DejaVuSans-28"/>
      <use x="39.013672" xlink:href="#DejaVuSans-32"/>
      <use x="102.636719" xlink:href="#DejaVuSans-2c"/>
      <use x="134.423828" xlink:href="#DejaVuSans-30"/>
      <use x="198.046875" xlink:href="#DejaVuSans-2c"/>
      <use x="229.833984" xlink:href="#DejaVuSans-75"/>
      <use x="293.212891" xlink:href="#DejaVuSans-29"/>
     </g>
    </g>
   </g>
   <g id="text_63">
    <g clip-path="url(#pe8a794a1fe)">
     <!-- (2,0,v) -->
     <g transform="translate(472.38824 205.252409)scale(0.08 -0.08)">
      <use xlink:href="#DejaVuSans-28"/>
      <use x="39.013672" xlink:href="#DejaVuSans-32"/>
      <use x="102.636719" xlink:href="#DejaVuSans-2c"/>
      <use x="134.423828" xlink:href="#DejaVuSans-30"/>
      <use x="198.046875" xlink:href="#DejaVuSans-2c"/>
      <use x="229.833984" xlink:href="#DejaVuSans-76"/>
      <use x="289.013672" xlink:href="#DejaVuSans-29"/>
     </g>
    </g>
   </g>
   <g id="text_64">
    <g clip-path="url(#pe8a794a1fe)">
     <!-- (2,1,u) -->
     <g transform="translate(472.22074 255.325136)scale(0.08 -0.08)">
      <use xlink:href="#DejaVuSans-28"/>
      <use x="39.013672" xlink:href="#DejaVuSans-32"/>
      <use x="102.636719" xlink:href="#DejaVuSans-2c"/>
      <use x="134.423828" xlink:href="#DejaVuSans-31"/>
      <use x="198.046875" xlink:href="#DejaVuSans-2c"/>
      <use x="229.833984" xlink:href="#DejaVuSans-75"/>
      <use x="293.212891" xlink:href="#DejaVuSans-29"/>
     </g>
    </g>
   </g>
   <g id="text_65">
    <g clip-path="url(#pe8a794a1fe)">
     <!-- (2,1,v) -->
     <g transform="translate(472.38824 305.397864)scale(0.08 -0.08)">
      <use xlink:href="#DejaVuSans-28"/>
      <use x="39.013672" xlink:href="#DejaVuSans-32"/>
      <use x="102.636719" xlink:href="#DejaVuSans-2c"/>
      <use x="134.423828" xlink:href="#DejaVuSans-31"/>
      <use x="198.046875" xlink:href="#DejaVuSans-2c"/>
      <use x="229.833984" xlink:href="#DejaVuSans-76"/>
      <use x="289.013672" xlink:href="#DejaVuSans-29"/>
     </g>
    </g>
   </g>
   <g id="text_66">
    <g clip-path="url(#pe8a794a1fe)">
     <!-- (2,2,u) -->
     <g transform="translate(472.22074 355.470591)scale(0.08 -0.08)">
      <use xlink:href="#DejaVuSans-28"/>
      <use x="39.013672" xlink:href="#DejaVuSans-32"/>
      <use x="102.636719" xlink:href="#DejaVuSans-2c"/>
      <use x="134.423828" xlink:href="#DejaVuSans-32"/>
      <use x="198.046875" xlink:href="#DejaVuSans-2c"/>
      <use x="229.833984" xlink:href="#DejaVuSans-75"/>
      <use x="293.212891" xlink:href="#DejaVuSans-29"/>
     </g>
    </g>
   </g>
   <g id="text_67">
    <g clip-path="url(#pe8a794a1fe)">
     <!-- (2,2,v) -->
     <g transform="translate(472.38824 405.543318)scale(0.08 -0.08)">
      <use xlink:href="#DejaVuSans-28"/>
      <use x="39.013672" xlink:href="#DejaVuSans-32"/>
      <use x="102.636719" xlink:href="#DejaVuSans-2c"/>
      <use x="134.423828" xlink:href="#DejaVuSans-32"/>
      <use x="198.046875" xlink:href="#DejaVuSans-2c"/>
      <use x="229.833984" xlink:href="#DejaVuSans-76"/>
      <use x="289.013672" xlink:href="#DejaVuSans-29"/>
     </g>
    </g>
   </g>
  </g>
 </g>
 <defs>
  <clipPath id="pe8a794a1fe">
   <rect height="424.116" width="556.326" x="89.73" y="66.096"/>
  </clipPath>
 </defs>
</svg>
